<svg id="Capa_1" data-name="Capa 1" xmlns="http://www.w3.org/2000/svg" viewBox="0 0 23.33 33.64"><defs><style>.cls-1{opacity:0.9;}.cls-2{fill:#49805d;}</style></defs><title>versio 6.1</title><g class="cls-1"><path class="cls-2" d="M805.37,653.28a11.42,11.42,0,0,0-11.67,11.13c0,2.47,1.65,6.5,5.06,12.32,2.41,4.11,4.77,7.54,4.87,7.69l1.73,2.51,1.73-2.51c0.1-.14,2.47-3.57,4.87-7.69,3.4-5.82,5.06-9.85,5.06-12.32a11.42,11.42,0,0,0-11.66-11.13m0,16.82a5.77,5.77,0,1,1,6-5.77,5.91,5.91,0,0,1-6,5.77" transform="translate(-793.71 -653.28)"/></g></svg>