<?xml version="1.0" encoding="utf-8"?>
<!-- Generator: Adobe Illustrator 16.0.0, SVG Export Plug-In . SVG Version: 6.00 Build 0)  -->
<!DOCTYPE svg PUBLIC "-//W3C//DTD SVG 1.1//EN" "http://www.w3.org/Graphics/SVG/1.1/DTD/svg11.dtd">
<svg version="1.1" id="Layer_1" xmlns="http://www.w3.org/2000/svg" xmlns:xlink="http://www.w3.org/1999/xlink" x="0px" y="0px"
	 width="390px" height="62px" viewBox="0 0 390 62" enable-background="new 0 0 390 62" xml:space="preserve">
<g>
	<path fill="#FFFFFF" d="M63.161,40.787l-1.902-10.801c-0.195-1.094-1.15-1.909-2.264-1.909h-1.279l-0.486-5.051
		c-0.519-5.408-5.004-9.49-10.443-9.49H34.665c-5.434,0-9.926,4.082-10.444,9.49l-0.483,5.051h-1.275
		c-1.116,0-2.068,0.815-2.262,1.909l-1.9,10.79c-0.239,1.336,0.139,2.712,1.012,3.752c0.836,0.999,2.057,1.595,3.368,1.642v1.791
		c0,2.537,2.036,4.57,4.575,4.57h1.441c2.539,0,4.59-2.033,4.59-4.57v-1.765h14.881v1.765c0,2.537,2.06,4.57,4.594,4.57h1.443
		c2.537,0,4.572-2.039,4.572-4.57V46.17c1.311-0.041,2.529-0.634,3.366-1.639C63.02,43.498,63.396,42.121,63.161,40.787
		 M26.706,42.039c-2.139,0-3.879-1.738-3.879-3.878c0-2.146,1.74-3.877,3.879-3.877c2.138,0,3.875,1.731,3.875,3.877
		C30.581,40.301,28.844,42.039,26.706,42.039 M27.668,28.07l0.452-4.665c0.322-3.388,3.143-5.94,6.545-5.94h0.691v1.471
		c0,1.27,1.023,2.32,2.297,2.32h6.16c1.27,0,2.287-1.051,2.287-2.32v-1.471h0.692c3.405,0,6.22,2.553,6.544,5.94l0.451,4.665H27.668
		z M54.751,42.039c-2.143,0-3.874-1.738-3.874-3.878c0-2.146,1.731-3.877,3.874-3.877c2.141,0,3.871,1.731,3.871,3.877
		C58.622,40.301,56.892,42.039,54.751,42.039"/>
	<path fill="#FFFFFF" d="M211.028,19.366h-3.731v-2.291c0-3.249-2.653-5.897-5.896-5.897h-10.311c-3.242,0-5.903,2.648-5.903,5.897
		v2.291h-3.725c-3.242,0-5.896,2.251-5.896,5.491v21.777c0,3.243,2.654,5.896,5.896,5.896h29.565c3.243,0,5.889-2.653,5.889-5.896
		V24.857C216.917,21.617,214.271,19.366,211.028,19.366 M188.351,17.075c0-1.445,1.286-2.738,2.74-2.738h10.311
		c1.446,0,2.74,1.292,2.74,2.738v2.291h-15.791V17.075z M205.719,39.894h-6.315v6.322h-6.315v-6.322h-6.314V32h6.314v-6.311h6.315
		V32h6.315V39.894z"/>
	<path fill="#FFFFFF" d="M371.771,23.206v-9.305c0-0.779-0.631-1.41-1.41-1.41h-37.214c-0.779,0-1.41,0.631-1.41,1.41v9.305
		c0,2.857,1.989,5.257,4.653,5.895v8.979h-3.243c-0.779,0-1.41,0.631-1.41,1.41v6.979c0,0.778,0.631,1.41,1.41,1.41h1.029
		c-0.073,0.293-0.113,0.601-0.113,0.916c0,2.061,1.676,3.736,3.736,3.736c2.06,0,3.735-1.676,3.735-3.736
		c0-0.315-0.041-0.623-0.114-0.916h20.667c-0.073,0.293-0.114,0.601-0.114,0.916c0,2.061,1.677,3.736,3.736,3.736
		s3.736-1.676,3.736-3.736c0-0.315-0.04-0.623-0.114-0.916h1.029c0.779,0,1.41-0.632,1.41-1.41V39.49c0-0.779-0.631-1.41-1.41-1.41
		h-3.242v-8.979C369.784,28.463,371.771,26.063,371.771,23.206 M339.207,38.08v-8.979c1.289-0.309,2.419-1.028,3.243-2.014
		c1.113,1.332,2.785,2.18,4.651,2.18c1.867,0,3.538-0.848,4.652-2.18c1.112,1.332,2.784,2.18,4.652,2.18
		c1.866,0,3.539-0.848,4.651-2.18c0.824,0.985,1.953,1.705,3.242,2.014v8.979H339.207z"/>
	<g>
		<path fill="#FFFFFF" d="M110.613,39.225V27.223c0-1.922-1.54-3.486-3.468-3.486c-1.927,0-3.464,1.564-3.464,3.486v12.002
			c0,1.923,1.541,3.486,3.464,3.486C109.073,42.711,110.613,41.147,110.613,39.225"/>
		<path fill="#FFFFFF" d="M133.289,39.225V27.223c0-1.922-1.594-3.486-3.521-3.486c-1.925,0-3.522,1.564-3.522,3.486v12.002
			c0,1.923,1.598,3.486,3.522,3.486C131.695,42.711,133.289,41.147,133.289,39.225"/>
		<g>
			<path fill="#FFFFFF" d="M121.924,39.225V27.223c0-1.922-1.567-3.486-3.496-3.486c-1.924,0-3.489,1.564-3.489,3.486v12.002
				c0,1.923,1.565,3.486,3.489,3.486C120.356,42.711,121.924,41.147,121.924,39.225"/>
			<path fill="#FFFFFF" d="M135.049,45.49h-33.131c-1.923,0-3.486,1.594-3.486,3.52c0,1.924,1.563,3.521,3.486,3.521h33.131
				c1.924,0,3.487-1.598,3.487-3.521C138.536,47.084,136.973,45.49,135.049,45.49"/>
			<path fill="#FFFFFF" d="M137.906,18.666l-18.095-7.449c-0.852-0.352-1.805-0.352-2.652,0L99.045,18.67
				c-0.494,0.212-0.771,0.729-0.666,1.257c0.109,0.521,0.57,0.892,1.11,0.892h37.992c0.54,0,1.006-0.373,1.111-0.9
				C138.694,19.387,138.409,18.868,137.906,18.666"/>
		</g>
	</g>
	<g>
		<path fill="#FFFFFF" d="M257.683,37.938h-3.264v3.648h0.033c0,0.873,0.249,1.739,0.788,2.419
			c4.228,5.339,11.24,8.526,18.758,8.526c7.519,0,14.529-3.188,18.759-8.526c0.538-0.68,0.787-1.546,0.787-2.419h0.031v-3.648
			H257.683z"/>
		<path fill="#FFFFFF" d="M299.933,22.181c-0.344-1.138-1.165-2.014-2.198-2.345l-22.842-7.295c-0.585-0.188-1.207-0.188-1.79,0
			l-22.842,7.295c-1.032,0.331-1.855,1.207-2.196,2.345c-0.344,1.139-0.163,2.392,0.482,3.354l4.894,7.297
			c0.617,0.918,1.584,1.459,2.609,1.459h35.895c1.027,0,1.993-0.541,2.611-1.459l4.895-7.297
			C300.095,24.572,300.273,23.319,299.933,22.181 M277.26,25.168c0,2.016-1.46,3.648-3.263,3.648c-1.802,0-3.263-1.633-3.263-3.648
			v-3.647h6.525V25.168z"/>
	</g>
</g>
</svg>
