<?xml version="1.0" encoding="utf-8"?>
<!-- Generator: Adobe Illustrator 19.2.0, SVG Export Plug-In . SVG Version: 6.00 Build 0)  -->
<svg version="1.1" id="Layer_1" xmlns="http://www.w3.org/2000/svg" xmlns:xlink="http://www.w3.org/1999/xlink" x="0px" y="0px"
	 viewBox="0 0 458.5 55.7" style="enable-background:new 0 0 458.5 55.7;" xml:space="preserve">
<style type="text/css">
	.st0{fill:#FAEFEC;}
</style>
<g>
	<path class="st0" d="M106.5,33.3l-0.7,3.9c-0.1,0.5,0.1,1.1,0.6,1.4c0.4,0.3,1,0.4,1.5,0.1l3.6-1.8l3.6,1.8
		c0.2,0.1,0.4,0.2,0.7,0.2c0.3,0,0.6-0.1,0.9-0.3c0.4-0.3,0.7-0.9,0.6-1.4l-0.7-3.9l2.9-2.8c0.4-0.4,0.5-1,0.4-1.5
		c-0.2-0.5-0.6-0.9-1.2-1l-4-0.6l-1.8-3.6c-0.2-0.5-0.8-0.8-1.3-0.8c-0.6,0-1.1,0.3-1.3,0.8l-1.8,3.6l-4,0.6c-0.5,0.1-1,0.5-1.2,1
		c-0.2,0.5,0,1.1,0.4,1.5L106.5,33.3z"/>
	<path class="st0" d="M128.7,10h-4.6V7.5c0-1.2-0.9-2.1-2.1-2.1h-0.3c-1.2,0-2.1,0.9-2.1,2.1V10h-16.2V7.5c0-1.2-0.9-2.1-2.1-2.1
		H101c-1.2,0-2.1,0.9-2.1,2.1V10h-4.5C91.9,10,90,12,90,14.3v30c0,2.4,2,4.3,4.3,4.3h34.4c2.4,0,4.4-1.9,4.4-4.3v-30
		C133.1,12,131.1,10,128.7,10 M128.2,43.8H94.9V20.4h33.3V43.8z"/>
</g>
<path class="st0" d="M56.7,27.1l-8.1,5.4c0-1.6-0.7-3.1-1.9-4.1c2.7-1.6,4.6-4.6,4.6-8c0-5.2-4.2-9.4-9.4-9.4
	c-5.2,0-9.4,4.2-9.4,9.4c0,2.6,1.1,5,2.8,6.7h-4.9c1.3-1.4,2.1-3.3,2.1-5.4c0-4.5-3.6-8.1-8.1-8.1c-4.5,0-8.1,3.6-8.1,8.1
	c0,2.4,1.1,4.6,2.8,6.1c-1.7,0.9-2.8,2.7-2.8,4.7v10.8c0,3,2.4,5.4,5.4,5.4h21.5c3,0,5.4-2.4,5.4-5.4l8.1,5.4c1.5,0,2.7-1.2,2.7-2.7
	V29.8C59.4,28.3,58.2,27.1,56.7,27.1 M24.4,27.1c-3,0-5.4-2.4-5.4-5.4c0-3,2.4-5.4,5.4-5.4c3,0,5.4,2.4,5.4,5.4
	C29.8,24.7,27.4,27.1,24.4,27.1 M41.9,27.1c-3.7,0-6.8-3-6.8-6.7c0-3.7,3-6.8,6.8-6.8c3.7,0,6.8,3,6.8,6.8
	C48.7,24.1,45.6,27.1,41.9,27.1"/>
<g>
	<polygon class="st0" points="344.6,25.6 348.9,25.6 349.2,18.2 344.4,18.8 	"/>
	<polygon class="st0" points="315.2,18.1 314.6,8.4 320.9,8.3 321.5,15.5 322.7,15.5 322.9,9.5 329,8.7 330.4,16 333.1,15.7 
		332.5,7.8 339.4,7.9 339.1,14.5 341.6,15.2 341.7,7.5 350.4,7.9 348.9,16.4 	"/>
	<polygon class="st0" points="314.9,19.3 314.8,26.2 320.8,24.2 320.9,19.3 	"/>
	<polygon class="st0" points="322,19 321.8,24.8 332.7,25.5 331.5,18.4 	"/>
	<polygon class="st0" points="334,26 332.9,18.6 342.5,18.9 343.3,25.4 	"/>
	<polygon class="st0" points="315.3,27.7 320.4,25.7 332.9,26.8 331.6,38.8 316.6,39 	"/>
	<polygon class="st0" points="333.9,26.8 332.7,38.6 341.5,38.7 340,27 	"/>
	<polygon class="st0" points="341.7,27.3 342.4,39 349.3,38.5 349,26.6 343.9,26.4 	"/>
	<polygon class="st0" points="329.1,48.4 349.6,46.5 349.1,40 328.5,40.1 329.3,44.4 	"/>
	<polygon class="st0" points="327.9,39.8 328.4,47.2 320.1,48.7 316.6,40.6 	"/>
</g>
<g>
	<path class="st0" d="M254.4,11.1c0.6,0.1,1.2,0.2,1.8,0.3c1.4,0.3,2.6,0.7,3.9,1.3c1.4,0.7,2.8,1.5,4,2.5c0.9,0.8,1.8,1.7,2.5,2.7
		c0.5,0.7,0.9,1.4,1.3,2.2c0.7,1.2,1.1,2.5,1.1,3.8c0,0.7,0,1.4-0.1,2.1c0,0-0.1,0-0.1,0c-0.1-0.3-0.2-0.6-0.2-0.9
		c-0.4-1.5-1.1-2.8-1.7-4.1c-0.3-0.6-0.7-1.2-1.1-1.7c-0.8-1.1-1.7-2.1-2.7-3c-1.4-1.1-2.9-2.1-4.7-2.6c-2.6-0.8-5.2-0.9-7.9-0.2
		c-1.9,0.5-3.7,1.3-5.2,2.6c-1,0.8-1.8,1.7-2.5,2.7c-0.4,0.7-0.9,1.4-1.3,2.2c-0.9,1.5-1.1,3.2-1.4,4.9c-0.3,1.5-0.1,3-0.1,4.5v0.8
		c-0.1-0.1-0.1-0.2-0.2-0.3c-0.5-1-0.7-2.1-0.9-3.2c-0.2-1-0.3-2-0.1-3c0.2-1.7,0.5-3.3,1.3-4.8c0.3-0.6,0.6-1.1,0.9-1.7
		c1.1-1.7,2.4-3.1,4.1-4.2c1-0.7,2.1-1.3,3.3-1.8c1.3-0.6,2.6-1,4.1-1.1c0.1,0,0.2,0,0.4-0.1C252.7,11.1,254.4,11.1,254.4,11.1z"/>
	<path class="st0" d="M246.7,48.7c-0.5-0.2-1-0.4-1.5-0.6c-0.1-0.1-0.3-0.1-0.4-0.3c-1.2-1.1-1.6-2.1-1-3.7c0.7-1.7,2.1-2.8,3.9-3.3
		c1.6-0.4,3.1-0.2,4.6,0.5c1.4,0.6,2.8,1.4,4.1,2.2c2.4,1.6,5.1,2.7,8,3.3c1.6,0.3,3.1,0.6,4.7,0.8c1.7,0.2,3.4,0.2,5.1,0
		c2.2-0.3,4.4-0.9,6.4-1.9c0.1-0.1,0.3-0.1,0.5,0c-0.3,0.5-0.9,0.8-1.4,1c-1.2,0.4-2.4,0.9-3.6,1.2c-1.8,0.4-3.7,0.5-5.6,0.4
		c-2.4-0.1-4.8-0.4-7.1-1.1c-1.8-0.5-3.5-1.3-5.1-2.1c-1-0.5-2-0.7-3.1-0.2c-0.5,0.2-0.9,0.5-1.1,1.1c-0.1,0.5,0.1,1,0.6,1.4
		c0.4,0.3,0.7,0.2,1.1,0c0.3-0.2,0.4-0.4,0.3-0.7c-0.1-0.2-0.3-0.3-0.5-0.4c-0.1,0.2-0.1,0.4-0.2,0.5c-0.1,0.2-0.3,0.4-0.5,0.3
		c-0.1-0.1-0.3-0.3-0.3-0.4c0-0.5,0.2-0.9,0.7-1.2c0.5-0.3,1-0.2,1.5,0.2c0.4,0.3,0.5,0.7,0.4,1.2c-0.2,1.4-1.9,2.1-3,1.1
		c-0.9-0.7-0.9-2,0-2.7c0.7-0.6,1.4-0.8,2.2-0.8c0.2,0,0.3,0,0.5-0.1c-0.5-0.3-0.9-0.6-1.4-0.9c-0.6-0.4-1.3-0.7-2-1
		c-1.4-0.7-2.9-1.1-4.5-1c-1.5,0.1-2.8,0.6-3.7,1.9c-0.5,0.7-0.8,1.4-0.9,2.2c0,1.7,2,2.9,3.5,2.1c0.7-0.3,1.1-1.1,1-1.8
		c-0.1-0.4-0.3-0.7-0.7-0.8c-0.4-0.1-0.8-0.1-1.1,0.2c-0.2,0.2-0.2,0.5,0,0.7c0.2,0.2,0.4,0.3,0.6,0.5c-0.2,0.1-0.3,0.1-0.4,0.2
		c-0.8,0.3-1.4,0-1.6-0.8c-0.2-0.8-0.2-1.6,0.5-2.2c0.7-0.6,1.5-0.9,2.4-0.6c1.7,0.4,2.2,1.9,1.9,3.4c-0.1,0.3-0.2,0.7-0.4,1
		c-0.4,0.9-1.2,1.3-2.1,1.5c-0.1,0-0.2,0.1-0.3,0.1L246.7,48.7L246.7,48.7z"/>
	<path class="st0" d="M275.6,37.2c-0.1-1.2,0.4-1.7,1.5-1.5c0.8,0.2,1.5,0.6,1.8,1.5c0.3,0.8,0.1,1.6-0.5,2.2
		c-0.5,0.5-1.2,0.7-1.9,0.7c-1.4,0-2.9-1.2-3.2-2.5c-0.3-1.1,0.3-2.4,1.2-3c1.2-0.9,2.4-1,3.7-0.4c0.3,0.1,0.5,0.3,0.8,0.5
		c1.1,0.9,1.6,2.1,1.6,3.5c0,0.4,0,0.8,0,1.3c0,0.1,0,0.3,0,0.4c0,0,0.1,0,0.1,0.1c0.4-0.6,0.9-1.2,1.3-1.8c0.4,1.7,0.1,3.2-1.1,4.3
		c-1.9,1.7-4.1,2.6-6.6,3c-2.5,0.4-4.9,0.1-7.2-0.7c-1.6-0.5-3.2-1.1-4.8-1.7c-2.7-1-5.3-2.1-8-3.1c-2-0.8-4.1-1.3-6.2-1.6
		c-2.6-0.3-5.2-0.2-7.7,0.3c-1.5,0.3-3,0.8-4.4,1.3c-0.1,0-0.1,0-0.2,0.1c0-0.2-0.1-0.3-0.1-0.5c-0.1-0.5,0-0.6,0.4-0.8
		c1.7-0.8,3.5-1.3,5.4-1.5c2.1-0.3,4.2-0.2,6.3,0.1c0.1,0,0.2,0,0.4,0c0,0,0.1,0,0.1,0c0-0.1,0-0.3,0-0.4c0-3.5,0-7,0-10.5
		c0-0.2,0-0.5,0.1-0.7c0.1-0.2,0.3-0.5,0.5-0.6c0.5-0.3,1-0.5,1.6-0.7c0.1,0.6-0.1,1.2,0.4,1.7c0.2-0.1,0.5-0.3,0.7-0.5
		c0.1,0,0.1-0.1,0.1-0.2c0-0.3,0-0.5,0.1-0.8c0.1-0.5,0.1-0.6,0.7-0.7c0.4-0.1,0.8-0.1,1.2-0.2v1.1c0,0.4,0.1,0.6,0.5,0.6
		c0.6,0,0.8-0.1,0.8-0.6c0-0.1,0-0.3,0-0.4c0-0.7,0-0.7,0.7-0.8c0.4,0,0.8,0,1.3-0.1c0,0.4,0,0.7,0,1.1c0,0.6,0.5,1,1.1,0.8
		c0.1,0,0.2-0.2,0.2-0.4c0-0.2,0-0.4,0-0.6c0-0.2,0-0.4,0-0.7c0.6,0.1,1.1,0.1,1.6,0.3c0.1,0,0.2,0.3,0.2,0.4c0,0.3,0,0.6,0,0.9
		c0.1,0.5,0.6,0.8,1,0.6c0.1,0,0.1-0.2,0.1-0.3c0-0.2,0-0.4,0-0.6v-0.6c0.9,0,1.9,0.9,1.9,2c0,5.1,0,10.2,0,15.4c0,0.1,0,0.2,0,0.3
		c0,0.2,0.1,0.3,0.3,0.3c2.2,0.5,4.4,1.1,6.7,1.3c1.2,0.1,2.5,0.1,3.7-0.1c0.5-0.1,0.7-0.4,0.8-0.9c0-0.8-0.3-1.5-0.9-2
		c-0.6-0.5-1.3-0.5-1.8,0.1c-0.2,0.2-0.3,0.6-0.1,0.9c0.1,0.3,0.6,0.6,0.8,0.5c0.2-0.1,0.3-0.4,0.5-0.5c0,0-0.1-0.1-0.1-0.1h-0.6
		c-0.1-0.5,0.2-0.8,0.7-0.8c0.6,0.1,1.1,0.6,1.1,1.1c0,0.6-0.3,1-1,1.2c-0.8,0.2-1.7-0.3-2-1c-0.3-0.6,0-1.5,0.6-1.9
		c0.8-0.6,1.9-0.4,2.5,0.3c0.7,0.7,0.8,1.6,0.6,2.5c0,0.2-0.1,0.3-0.1,0.5c0,0,0,0,0,0.1c0.4-0.1,0.8-0.3,1.1-0.4
		c1.4-0.5,2.6-1.3,3.7-2.2c0.2-0.2,0.3-0.5,0.4-0.8c0.1-0.9,0.2-1.9-0.2-2.7c-0.5-1.1-1.2-2.1-2.5-2.4c-0.6-0.1-1.1-0.1-1.6,0.1
		c-0.6,0.2-1,1-0.9,1.8c0.1,0.8,0.7,1.5,1.4,1.6c0.5,0.1,0.8-0.2,1-0.5c0.1-0.2,0.1-0.6,0-0.7c-0.1-0.2-0.4-0.2-0.7-0.2
		C276.1,37,275.9,37.1,275.6,37.2 M257.1,34.2c0-1,0-1.9,0-2.8c0-0.8-0.9-1.2-1.6-1.2c-0.8,0.1-1.3,0.6-1.3,1.4c0,0.2,0,0.4,0,0.7
		c0,0.7,0,1.3,0,2L257.1,34.2L257.1,34.2z"/>
	<path class="st0" d="M274.1,28.3c0.3-0.7,0.6-1.3,0.9-1.9c0.3-0.6,0.7-1.1,1.2-1.6c0.3-0.3,0.6-0.5,1.2-0.4
		c-0.1,0.1-0.2,0.3-0.3,0.3c-0.5,0.3-0.8,0.8-1.2,1.4c-0.5,0.8-0.6,1.7-0.9,2.6c-0.1,0.3-0.3,0.7-0.5,0.9c-0.2,0.3-0.5,0.2-0.8,0
		c-1.1-1.1-2.4-1.2-3.8-0.8c-0.4,0.1-0.8,0.3-1.2,0.4c0.1-0.4,0.3-0.6,0.6-0.8c1.5-0.7,3-0.7,4.5-0.2
		C273.9,28.3,274,28.3,274.1,28.3"/>
	<path class="st0" d="M266.3,32.6c0.8-0.6,1.7-0.7,2.7-0.4c0.4-0.8,0.7-1.6,1.6-2c0,0.1,0,0.2-0.1,0.3c-0.6,0.5-0.8,1.3-1,2
		c-0.1,0.6-0.4,0.7-0.9,0.3c-0.5-0.4-1.1-0.4-1.6-0.3c-0.2,0.1-0.5,0.1-0.7,0.2C266.3,32.7,266.3,32.6,266.3,32.6"/>
</g>
<g>
	<path class="st0" d="M186.3,43.3l-1.5-9.3c-0.2-1.2-0.5-2.4-1-3.4c-0.5-1-1.1-1.9-1.9-2.6c-0.8-0.7-1.8-1.1-3-1.4
		c-1.2-0.2-2.5-0.2-4.1,0.1c-1.7,0.3-3.2,0.7-4.5,1.1c-0.3,0.1-0.7,0.2-1.1,0.3c-1.8,0.6-2.3,0.7-2.4,1.3l3,17.8l4.4-2.2L172,31.4
		c0,0,0,0,0.1,0c0.3-0.1,0.6-0.2,0.9-0.3c0.3-0.1,0.7-0.2,1.1-0.3c1.3-0.3,2.3-0.5,3.1-0.3c0.5,0.1,1.2,0.3,1.6,0.7
		c0.4,0.4,0.8,0.8,1.1,1.4c0,0,1.6,9.4,1.8,10.4"/>
	<path class="st0" d="M210.3,26.9c-0.7-1.1-1.5-2-2.5-2.7c-1-0.7-2.1-1.2-3.4-1.5c-1.3-0.3-2.6-0.3-4,0c-0.7,0.1-1.4,0.3-2,0.5
		l-8.2,1.4l-0.2-1.1c-0.2-1.2,0-2.2,0.3-3.1c0.6-1.3,2.5-1.5,2.5-1.5l-0.7-3.8c0,0-4.4,1-5.8,3.1c-1,1.6-1.4,3.6-1,6l3,18.2l4.5-2
		l-2.1-12.2l2.4-0.4c-0.3,0.6-0.5,1.3-0.7,2c-0.3,1.3-0.3,2.6,0,4c0.2,1.4,0.7,2.7,1.4,3.8c0.7,1.1,1.5,2,2.5,2.7
		c1,0.7,2.1,1.2,3.4,1.5c1.3,0.3,2.6,0.3,4,0c1.4-0.2,2.6-0.7,3.7-1.4c1.1-0.7,2-1.5,2.7-2.5c0.7-1,1.2-2.1,1.5-3.4
		c0.3-1.2,0.3-2.6,0-4.1C211.4,29.2,210.9,28,210.3,26.9 M206.8,31.5c0.3,1.5,0,2.8-0.7,3.8c-0.7,1-1.8,1.6-3.3,1.8
		c-1.5,0.3-2.7,0-3.7-0.7c-1-0.7-1.7-1.8-1.9-3.3c-0.3-1.5,0-2.8,0.7-3.8c0.7-1,1.8-1.6,3.3-1.8c1.5-0.3,2.7,0,3.7,0.7
		C205.9,28.8,206.6,30,206.8,31.5"/>
	<path class="st0" d="M164.6,26.5c0.1,0.9,0,1.6-0.5,2.2c-0.5,0.6-1.2,1-2,1.1c-0.8,0.1-1.5,0-2.2-0.4c-0.7-0.4-1.1-1-1.2-1.9
		c-0.1-0.9,0-1.6,0.5-2.2c0.5-0.6,1.2-1,2-1.1c0.8-0.1,1.5,0,2.2,0.4C164,25,164.4,25.6,164.6,26.5 M167.7,47.8l-5,0.8l-2.8-16.5
		l5-0.8L167.7,47.8z"/>
</g>
<g>
	<path class="st0" d="M395.9,16.5h-5.4c0,0-4.3,0.2-4.3,4.3v5.7c0,0-0.1,4.8,4.1,4.8c0,0,1.5,0.9,1.5,2.7v10.3c0,0-0.3,1.7,1.4,1.7
		c0,0,4.8,0.8,2.4-4.2c1.8-1.9,0.2-3.8,0.2-3.8s1.6-1.6,0.1-3.7c0,0,1.4-1.9,1.4-3l0.1-13.1C397.3,18,397.6,16.5,395.9,16.5z
		 M389.6,26.8c0,0.7-0.6,1.2-1.2,1.2c-0.7,0-1.2-0.6-1.2-1.2v-6c0-0.7,0.6-1.2,1.2-1.2c0.7,0,1.2,0.6,1.2,1.2V26.8z"/>
	<path class="st0" d="M420.6,19.2v-12c0-1.6-1.3,0.2-1.3,0.2c-6.3,9.8-19.3,9-19.3,9c-1.5,0-1.3,1.3-1.3,1.3V29
		c0,1.3,1.4,1.3,1.4,1.3c14.5,0,19.5,9.2,19.5,9.2s1.1,1.4,1.1-0.1v-12c1.5-0.8,2.5-2.3,2.5-4.1C423.1,21.5,422.1,20,420.6,19.2z"/>
</g>
</svg>
