<?xml version="1.0" encoding="utf-8"?>
<!-- Generator: Adobe Illustrator 16.0.0, SVG Export Plug-In . SVG Version: 6.00 Build 0)  -->
<!DOCTYPE svg PUBLIC "-//W3C//DTD SVG 1.1//EN" "http://www.w3.org/Graphics/SVG/1.1/DTD/svg11.dtd">
<svg version="1.1" id="Layer_1" xmlns="http://www.w3.org/2000/svg" xmlns:xlink="http://www.w3.org/1999/xlink" x="0px" y="0px"
	 width="321px" height="41.667px" viewBox="0 0 321 41.667" enable-background="new 0 0 321 41.667" xml:space="preserve">
<g>
	<g>
		<path fill="#FFFFFF" d="M274.342,22.838l-2.248-1.123c-0.195-0.099-0.425-0.099-0.621,0l-2.41,1.205l-1.033-0.741l3.085-4.262
			l3.559,4.447L274.342,22.838L274.342,22.838z M274.076,13.78l0.204,0.204h-2.495v-1.393h2.495l-0.204,0.203
			C273.804,13.067,273.804,13.509,274.076,13.78L274.076,13.78z M257.769,24.298l-0.988-0.496c-0.195-0.098-0.426-0.098-0.622,0
			l-0.769,0.386l-0.195-0.391l1.249-1.708l1.591,1.991L257.769,24.298L257.769,24.298z M282.769,30.256l-10.984-13.731v-1.147h4.176
			h0.001c0.385,0,0.696-0.312,0.696-0.697c0-0.202-0.087-0.385-0.225-0.512l-0.881-0.881l0.9-0.898
			c0.198-0.198,0.258-0.499,0.15-0.758c-0.107-0.261-0.361-0.431-0.643-0.431h-4.873c-0.385,0-0.697,0.312-0.697,0.695v2.784v1.862
			l-7.887,10.895l-5.54-6.927c-0.136-0.169-0.343-0.265-0.559-0.261s-0.419,0.109-0.547,0.285l-6.215,8.494
			c-0.228,0.311-0.16,0.745,0.151,0.973c0.123,0.091,0.267,0.136,0.409,0.136c0.214,0,0.427-0.099,0.562-0.286l3.505-4.788
			l0.184,0.369c0.083,0.165,0.227,0.291,0.403,0.351c0.175,0.057,0.365,0.045,0.531-0.039l1.081-0.539l1.08,0.539
			c0.099,0.05,0.205,0.073,0.311,0.073c0.16,0,0.315-0.054,0.443-0.157l0.6-0.493l2.752,3.439l-5.75,7.94
			c-0.225,0.311-0.156,0.748,0.156,0.971c0.123,0.092,0.266,0.134,0.408,0.134c0.215,0,0.428-0.1,0.562-0.287l10.18-14.058
			l1.382,0.989c0.211,0.151,0.485,0.17,0.716,0.058l2.475-1.236l2.472,1.236c0.101,0.049,0.206,0.073,0.312,0.073
			c0.221,0,0.436-0.106,0.57-0.298l0.441-0.631l6.103,7.628c0.239,0.3,0.678,0.349,0.978,0.107
			C282.959,30.993,283.008,30.556,282.769,30.256L282.769,30.256z"/>
	</g>
	<path fill="#FFFFFF" d="M255.775,11.896c-0.769,0-1.394-0.625-1.394-1.393s0.625-1.391,1.394-1.391
		c0.766,0,1.392,0.623,1.392,1.391S256.541,11.896,255.775,11.896L255.775,11.896z M258.558,10.503c0-1.533-1.249-2.783-2.783-2.783
		c-1.537,0-2.785,1.25-2.785,2.783c0,1.536,1.248,2.784,2.785,2.784C257.309,13.287,258.558,12.039,258.558,10.503L258.558,10.503z"
		/>
	<path fill="#FFFFFF" d="M255.775,7.022c0.384,0,0.695-0.312,0.695-0.695V4.936c0-0.384-0.312-0.697-0.695-0.697
		c-0.385,0-0.697,0.313-0.697,0.697v1.392C255.078,6.711,255.39,7.022,255.775,7.022L255.775,7.022z"/>
	<path fill="#FFFFFF" d="M255.078,14.68v1.393c0,0.384,0.312,0.695,0.697,0.695c0.384,0,0.695-0.312,0.695-0.695V14.68
		c0-0.384-0.312-0.695-0.695-0.695C255.39,13.984,255.078,14.296,255.078,14.68L255.078,14.68z"/>
	<path fill="#FFFFFF" d="M253.082,7.235c0.13,0.223,0.363,0.348,0.605,0.348c0.117,0,0.236-0.029,0.347-0.094
		c0.333-0.192,0.446-0.618,0.255-0.951l-0.696-1.205c-0.191-0.332-0.618-0.446-0.95-0.255c-0.334,0.192-0.448,0.619-0.255,0.95
		L253.082,7.235L253.082,7.235z"/>
	<path fill="#FFFFFF" d="M257.956,15.674c0.128,0.224,0.362,0.349,0.604,0.349c0.118,0,0.237-0.03,0.347-0.093
		c0.334-0.192,0.447-0.618,0.255-0.951l-0.694-1.206c-0.193-0.333-0.619-0.447-0.953-0.254c-0.332,0.192-0.445,0.617-0.254,0.95
		L257.956,15.674L257.956,15.674z"/>
	<path fill="#FFFFFF" d="M250.604,8.322l1.205,0.696c0.109,0.063,0.229,0.094,0.348,0.094c0.24,0,0.474-0.126,0.603-0.349
		c0.192-0.333,0.078-0.759-0.254-0.951l-1.207-0.696c-0.332-0.191-0.758-0.076-0.949,0.255
		C250.156,7.704,250.271,8.13,250.604,8.322L250.604,8.322z"/>
	<path fill="#FFFFFF" d="M260.596,13.984c0.239,0,0.474-0.124,0.603-0.349c0.192-0.332,0.078-0.758-0.254-0.951l-1.207-0.696
		c-0.332-0.191-0.758-0.076-0.949,0.255c-0.193,0.333-0.078,0.759,0.254,0.951l1.206,0.695
		C260.358,13.954,260.478,13.984,260.596,13.984L260.596,13.984z"/>
	<path fill="#FFFFFF" d="M250.205,11.2h1.393c0.385,0,0.696-0.312,0.696-0.696c0-0.385-0.312-0.696-0.696-0.696h-1.393
		c-0.384,0-0.696,0.312-0.696,0.695C249.508,10.888,249.821,11.2,250.205,11.2L250.205,11.2z"/>
	<path fill="#FFFFFF" d="M259.95,9.808c-0.384,0-0.695,0.312-0.695,0.695c0,0.385,0.312,0.697,0.695,0.697h1.394l0,0
		c0.384,0,0.694-0.312,0.694-0.696c0-0.385-0.311-0.696-0.694-0.696H259.95L259.95,9.808L259.95,9.808L259.95,9.808z"/>
	<path fill="#FFFFFF" d="M252.759,12.243c-0.191-0.331-0.617-0.446-0.95-0.255l-1.205,0.696c-0.333,0.193-0.448,0.619-0.255,0.951
		c0.128,0.225,0.362,0.349,0.604,0.349c0.117,0,0.237-0.03,0.346-0.095l1.207-0.695C252.837,13.002,252.952,12.576,252.759,12.243
		L252.759,12.243z"/>
	<path fill="#FFFFFF" d="M258.787,8.764c0.131,0.223,0.364,0.349,0.604,0.349c0.118,0,0.238-0.03,0.347-0.094l1.206-0.696
		c0.333-0.192,0.447-0.618,0.255-0.951c-0.191-0.331-0.617-0.446-0.949-0.255l-1.207,0.696
		C258.71,8.005,258.595,8.431,258.787,8.764L258.787,8.764z"/>
	<path fill="#FFFFFF" d="M252.64,15.93c0.111,0.062,0.23,0.093,0.348,0.093c0.241,0,0.475-0.125,0.604-0.348l0.696-1.206
		c0.191-0.333,0.078-0.758-0.255-0.95c-0.333-0.193-0.759-0.079-0.952,0.254l-0.694,1.206
		C252.194,15.312,252.308,15.737,252.64,15.93L252.64,15.93z"/>
	<path fill="#FFFFFF" d="M257.513,7.489c0.111,0.064,0.23,0.094,0.348,0.094c0.241,0,0.475-0.125,0.605-0.348l0.694-1.207
		c0.192-0.331,0.079-0.758-0.255-0.95c-0.332-0.191-0.759-0.077-0.95,0.255l-0.696,1.205C257.068,6.871,257.181,7.297,257.513,7.489
		L257.513,7.489z"/>
</g>
<g>
	<path fill="#FFFFFF" d="M21.832,14.777v-1.37h5.482h1.371v-1.371V9.98h15.76v3.427v1.37H21.832L21.832,14.777z M44.445,31.908
		H14.296v-0.686h30.148V31.908L44.445,31.908z M33.482,29.853c-1.831,0-3.552-0.714-4.846-2.007
		C27.343,26.551,26.63,24.831,26.63,23c0-1.83,0.713-3.551,2.006-4.846c1.294-1.294,3.015-2.007,4.846-2.007
		c1.83,0,3.551,0.713,4.845,2.007c1.294,1.295,2.007,3.016,2.007,4.846c0,1.831-0.713,3.551-2.007,4.846
		C37.033,29.139,35.312,29.853,33.482,29.853L33.482,29.853z M44.445,17.519v12.334h-6.417c2.215-1.474,3.677-3.992,3.677-6.853
		s-1.462-5.379-3.677-6.853h6.417V17.519L44.445,17.519L44.445,17.519z M23.888,16.833c0,0.378,0.307,0.686,0.686,0.686
		c0.378,0,0.686-0.308,0.686-0.686v-0.686h3.676C26.72,17.621,25.259,20.14,25.259,23s1.461,5.379,3.676,6.853H14.296V17.519v-1.371
		h9.592V16.833L23.888,16.833L23.888,16.833z M14.296,13.407h6.166v1.37h-6.166V13.407L14.296,13.407z M17.72,10.666v1.37h-2.74
		v-1.37H17.72L17.72,10.666z M21.148,10.666h4.111v1.37h-4.111V10.666L21.148,10.666z M44.445,8.61h-15.76
		c-0.756,0-1.371,0.613-1.371,1.37v2.056H26.63V9.98c0-0.378-0.308-0.685-0.688-0.685h-5.48c-0.379,0-0.686,0.307-0.686,0.685v2.056
		h-0.686V9.98c0-0.378-0.307-0.685-0.684-0.685h-4.111c-0.38,0-0.688,0.307-0.688,0.685v2.239c-0.409,0.237-0.684,0.68-0.684,1.188
		v1.37v3.426v7.538v5.481v0.686c0,0.757,0.613,1.37,1.371,1.37h30.148c0.757,0,1.371-0.613,1.371-1.37v-0.686v-5.481v-7.538v-3.426
		v-1.37V9.98C45.816,9.224,45.202,8.61,44.445,8.61L44.445,8.61z"/>
	<path fill="#FFFFFF" d="M34.166,11.693h-4.111c-0.377,0-0.684,0.308-0.684,0.686c0,0.379,0.307,0.686,0.684,0.686h4.111
		c0.38,0,0.688-0.307,0.688-0.686C34.853,12.001,34.545,11.693,34.166,11.693L34.166,11.693z"/>
	<path fill="#FFFFFF" d="M36.222,10.666c-0.378,0-0.685,0.307-0.685,0.686v2.056c0,0.378,0.307,0.685,0.685,0.685
		c0.379,0,0.687-0.307,0.687-0.685v-2.056C36.909,10.973,36.601,10.666,36.222,10.666L36.222,10.666z"/>
	<path fill="#FFFFFF" d="M38.964,12.036h3.425v0.686h-3.425V12.036L38.964,12.036z M37.593,14.092h6.167v-3.426h-6.167V14.092
		L37.593,14.092z"/>
	<path fill="#FFFFFF" d="M33.482,17.561L33.482,17.561L33.482,17.561c-3.004,0-5.438,2.436-5.438,5.439l0,0l0,0
		c0,0.379,0.306,0.686,0.685,0.686s0.685-0.307,0.685-0.686l0,0l0,0c0-2.243,1.825-4.068,4.069-4.068l0,0l0,0
		c0.378,0,0.684-0.307,0.684-0.686S33.86,17.561,33.482,17.561L33.482,17.561z"/>
</g>
<g>
	<g>
		<path fill="#FFFFFF" d="M96.369,31.344L95.3,29.101c0.84,0.107,1.703,0.205,2.586,0.295L96.369,31.344L96.369,31.344z
			 M90.492,30.461l-0.914-2.271c0.809,0.154,1.649,0.304,2.523,0.445L90.492,30.461L90.492,30.461z M84.724,29.348L83.9,26.924
			c0.799,0.206,1.663,0.416,2.59,0.625L84.724,29.348L84.724,29.348z M78.948,27.682l-0.587-2.398
			c0.715,0.242,1.539,0.508,2.467,0.785L78.948,27.682L78.948,27.682z M101.902,28.586L101.902,28.586
			c-8.166-0.47-14.9-1.957-19.111-3.122c-4.559-1.264-7.224-2.429-7.258-2.444l0,0v0.002c-0.073-0.032-0.154-0.052-0.239-0.052
			c-0.319,0-0.577,0.251-0.577,0.562c0,0.228,0.139,0.423,0.339,0.511v0.001c0.056,0.023,0.747,0.328,2.008,0.785l1.206,4.934
			l3.863-3.313c0.104,0.028,0.207,0.057,0.314,0.086c0.039,0.012,0.078,0.022,0.116,0.033l1.667,4.909l3.574-3.641
			c0.141,0.029,0.283,0.059,0.426,0.088l1.887,4.689l3.322-3.771c0.166,0.024,0.333,0.049,0.502,0.073l2.188,4.598l3.109-3.994
			c0.848,0.073,1.714,0.135,2.596,0.187v-0.001c0.012,0,0.022,0.002,0.035,0.002c0.318,0,0.577-0.252,0.577-0.562
			C102.447,28.847,102.205,28.602,101.902,28.586L101.902,28.586z"/>
	</g>
	<path fill="#FFFFFF" d="M87.021,16.533l-0.652,2.31l-1.791-1.649c0.42-0.103,0.838-0.21,1.26-0.324
		C86.231,16.763,86.625,16.65,87.021,16.533L87.021,16.533z M97.804,14.623l-2.223-1.424c0.91-0.44,1.74-0.871,2.48-1.275
		L97.804,14.623L97.804,14.623z M92.152,17.053l-2.031-1.542c0.83-0.301,1.658-0.625,2.482-0.969L92.152,17.053L92.152,17.053z
		 M80.534,20.179l-1.671-1.959c0.881-0.1,1.768-0.23,2.659-0.386L80.534,20.179L80.534,20.179z M75.293,18.479
		c0.006,0,0.013-0.001,0.019-0.001v0.001c0.717-0.022,1.439-0.063,2.166-0.122l3.395,3.979l2.006-4.762
		c0.119-0.023,0.236-0.049,0.353-0.073l3.741,3.443l1.362-4.82c0.167-0.054,0.333-0.108,0.499-0.164l4.125,3.129l0.916-5.095
		c0.165-0.074,0.33-0.148,0.495-0.225l0.001-0.001l4.408,2.822l0.51-5.356c1.814-1.05,2.854-1.796,2.925-1.85h-0.001
		c0.141-0.102,0.233-0.265,0.233-0.449c0-0.31-0.259-0.562-0.577-0.562c-0.131,0-0.25,0.041-0.346,0.11l0,0
		c-0.029,0.022-2.956,2.128-7.645,4.271c-4.326,1.975-11.066,4.377-18.603,4.602l0,0c-0.311,0.01-0.56,0.257-0.56,0.561
		C74.716,18.228,74.974,18.479,75.293,18.479L75.293,18.479z"/>
</g>
<g>
	<path fill="#FFFFFF" d="M218.301,32.021l-4.622-1.68V20.2c0.037-0.082,0.073-0.164,0.107-0.245c0.588-1.375,0.894-2.57,0.91-3.558
		l3.604,1.312V32.021L218.301,32.021z M207.517,32.043v-4.011c1.618-0.597,3.73-3.631,4.176-4.291
		c0.342-0.509,0.664-1.023,0.961-1.538v8.128L207.517,32.043L207.517,32.043z M201.354,30.331v-8.126
		c0.296,0.514,0.617,1.029,0.959,1.536c0.446,0.66,2.56,3.695,4.177,4.291v4.011L201.354,30.331L201.354,30.331z M195.706,32.021
		V17.709l3.604-1.312c0.016,0.988,0.321,2.184,0.909,3.558c0.035,0.082,0.071,0.163,0.108,0.247v10.14L195.706,32.021
		L195.706,32.021z M207.003,9.646c3.676,0,6.667,2.99,6.667,6.667c0,1.638-1.083,4.265-2.829,6.854
		c-0.76,1.127-1.584,2.15-2.32,2.879c-1.041,1.031-1.473,1.061-1.518,1.061c-0.047,0-0.479-0.029-1.518-1.061
		c-0.736-0.729-1.561-1.752-2.32-2.879c-1.746-2.59-2.831-5.217-2.831-6.854C200.334,12.636,203.326,9.646,207.003,9.646
		L207.003,9.646z M218.99,16.866l-4.361-1.587c-0.221-1.663-0.978-3.2-2.184-4.407c-1.454-1.453-3.387-2.254-5.441-2.254
		c-2.056,0-3.988,0.801-5.441,2.254c-1.207,1.207-1.963,2.744-2.186,4.409l-4.36,1.585c-0.204,0.074-0.339,0.267-0.339,0.483v15.406
		c0,0.168,0.082,0.324,0.219,0.42c0.088,0.062,0.191,0.094,0.295,0.094c0.06,0,0.119-0.011,0.176-0.031l5.481-1.992l5.993,1.997
		c0.001,0.002,0.002,0.002,0.003,0.002c0.052,0.016,0.104,0.024,0.159,0.024l0,0l0,0c0.055,0,0.109-0.009,0.162-0.026l5.993-1.997
		l5.481,1.992c0.057,0.021,0.116,0.031,0.176,0.031c0.104,0,0.206-0.031,0.295-0.094c0.137-0.096,0.219-0.252,0.219-0.42V17.35
		C219.33,17.133,219.195,16.94,218.99,16.866L218.99,16.866z"/>
	<path fill="#FFFFFF" d="M206.98,13.754c1.416,0,2.568,1.152,2.568,2.568s-1.152,2.567-2.568,2.567s-2.567-1.151-2.567-2.567
		S205.564,13.754,206.98,13.754L206.98,13.754z M206.98,19.917c1.982,0,3.596-1.613,3.596-3.595c0-1.982-1.613-3.595-3.596-3.595
		c-1.981,0-3.595,1.611-3.595,3.595C203.385,18.304,204.999,19.917,206.98,19.917L206.98,19.917z"/>
</g>
<g>
	<path fill="#FFFFFF" d="M157.355,32.25H138.23v-1.594c0-0.879,0.715-1.594,1.594-1.594h15.938c0.879,0,1.594,0.715,1.594,1.594
		V32.25L157.355,32.25L157.355,32.25z M147.792,22.156c-0.586,0-1.062-0.477-1.062-1.062s0.477-1.062,1.062-1.062
		s1.062,0.477,1.062,1.062S148.378,22.156,147.792,22.156L147.792,22.156z M147.792,14.188c3.809,0,6.906,3.099,6.906,6.906V28
		h-6.375v-4.849c0.916-0.236,1.594-1.069,1.594-2.058c0-1.172-0.953-2.125-2.125-2.125s-2.125,0.953-2.125,2.125
		c0,0.988,0.678,1.821,1.594,2.058V28h-6.375v-6.906C140.886,17.286,143.984,14.188,147.792,14.188L147.792,14.188z M155.761,28
		v-6.906c0-4.394-3.574-7.969-7.969-7.969s-7.969,3.575-7.969,7.969V28c-1.465,0-2.656,1.191-2.656,2.656v2.125
		c0,0.293,0.238,0.531,0.531,0.531h20.188c0.293,0,0.531-0.238,0.531-0.531v-2.125C158.417,29.191,157.226,28,155.761,28L155.761,28
		z"/>
	<path fill="#FFFFFF" d="M138.496,21.094c0-0.293-0.238-0.531-0.531-0.531h-2.391c-0.293,0-0.531,0.238-0.531,0.531
		c0,0.294,0.238,0.531,0.531,0.531h2.391C138.257,21.625,138.496,21.388,138.496,21.094L138.496,21.094z"/>
	<path fill="#FFFFFF" d="M142.418,12.849c0.099,0.17,0.276,0.266,0.46,0.266c0.091,0,0.182-0.023,0.266-0.071
		c0.254-0.146,0.342-0.472,0.195-0.727l-1.195-2.07c-0.147-0.254-0.473-0.341-0.727-0.194c-0.254,0.147-0.342,0.472-0.194,0.727
		L142.418,12.849L142.418,12.849z"/>
	<path fill="#FFFFFF" d="M147.792,11.797c0.293,0,0.531-0.237,0.531-0.531V8.344c0-0.293-0.238-0.531-0.531-0.531
		s-0.531,0.238-0.531,0.531v2.922C147.261,11.56,147.5,11.797,147.792,11.797L147.792,11.797z"/>
	<path fill="#FFFFFF" d="M136.485,15.179l2.53,1.461c0.084,0.049,0.176,0.071,0.266,0.071c0.184,0,0.362-0.095,0.461-0.266
		c0.146-0.254,0.059-0.579-0.195-0.726l-2.529-1.461c-0.255-0.146-0.58-0.06-0.727,0.194S136.231,15.032,136.485,15.179
		L136.485,15.179z"/>
	<path fill="#FFFFFF" d="M156.304,16.711c0.09,0,0.182-0.022,0.266-0.071l2.53-1.461c0.254-0.146,0.341-0.472,0.194-0.726
		s-0.472-0.341-0.726-0.194l-2.53,1.461c-0.254,0.146-0.342,0.472-0.195,0.726C155.942,16.616,156.121,16.711,156.304,16.711
		L156.304,16.711z"/>
	<path fill="#FFFFFF" d="M152.441,13.043c0.084,0.048,0.175,0.071,0.266,0.071c0.184,0,0.361-0.096,0.46-0.267l1.195-2.07
		c0.147-0.254,0.06-0.578-0.194-0.726c-0.254-0.146-0.579-0.06-0.727,0.194l-1.195,2.07
		C152.099,12.571,152.187,12.896,152.441,13.043L152.441,13.043z"/>
	<path fill="#FFFFFF" d="M160.011,20.562h-2.391c-0.293,0-0.531,0.238-0.531,0.531c0,0.294,0.238,0.531,0.531,0.531h2.391
		c0.293,0,0.531-0.237,0.531-0.531C160.542,20.801,160.304,20.562,160.011,20.562L160.011,20.562z"/>
	<path fill="#FFFFFF" d="M142.48,21.625c0.293,0,0.531-0.237,0.531-0.531V21.07c0-0.294-0.238-0.532-0.531-0.532
		s-0.531,0.238-0.531,0.532v0.023C141.949,21.388,142.187,21.625,142.48,21.625L142.48,21.625z"/>
	<path fill="#FFFFFF" d="M142.568,19.993c0.055,0.017,0.108,0.024,0.161,0.024c0.226,0,0.435-0.145,0.507-0.37
		c0.633-1.995,2.465-3.335,4.557-3.335c0.293,0,0.531-0.237,0.531-0.531c0-0.293-0.238-0.531-0.531-0.531
		c-2.558,0-4.796,1.638-5.57,4.075C142.134,19.605,142.289,19.904,142.568,19.993L142.568,19.993z"/>
	<path fill="#FFFFFF" d="M153.691,30.125h-2.711c-0.293,0-0.531,0.237-0.531,0.531c0,0.293,0.238,0.531,0.531,0.531h2.711
		c0.293,0,0.531-0.238,0.531-0.531C154.222,30.362,153.984,30.125,153.691,30.125L153.691,30.125z"/>
	<path fill="#FFFFFF" d="M155.23,30.125h-0.013c-0.294,0-0.531,0.238-0.531,0.531c0,0.294,0.237,0.531,0.531,0.531h0.013
		c0.293,0,0.531-0.237,0.531-0.531C155.761,30.363,155.523,30.125,155.23,30.125L155.23,30.125z"/>
</g>
</svg>
