<?xml version="1.0" encoding="utf-8"?>
<!-- Generator: Adobe Illustrator 16.0.0, SVG Export Plug-In . SVG Version: 6.00 Build 0)  -->
<!DOCTYPE svg PUBLIC "-//W3C//DTD SVG 1.1//EN" "http://www.w3.org/Graphics/SVG/1.1/DTD/svg11.dtd">
<svg version="1.1" id="Layer_1" xmlns="http://www.w3.org/2000/svg" xmlns:xlink="http://www.w3.org/1999/xlink" x="0px" y="0px"
	 width="496.5px" height="62px" viewBox="0 0 496.5 62" enable-background="new 0 0 496.5 62" xml:space="preserve">
<g>
	<path fill="#241F1F" d="M458.811-371.007c-0.648-0.194-1.3-0.13-1.939,0.196c-0.627,0.333-1.044,0.838-1.237,1.5l-6.579,22.371
		l-6.541-22.397c-0.188-0.528-0.51-0.963-0.958-1.289c-0.452-0.329-0.956-0.495-1.499-0.495h-0.663
		c-0.586,0-1.109,0.167-1.551,0.494c-0.455,0.329-0.766,0.773-0.925,1.322l-6.306,22.371l-6.846-22.374
		c-0.189-0.656-0.596-1.16-1.216-1.503c-0.612-0.323-1.262-0.391-1.918-0.196c-0.665,0.199-1.17,0.601-1.499,1.196
		c-0.341,0.617-0.409,1.26-0.207,1.905l9.336,30.682c0.187,0.53,0.496,0.97,0.912,1.297c0.39,0.323,0.877,0.493,1.409,0.493
		c0.055,0,0.11-0.002,0.136-0.004c0.552,0,1.058-0.168,1.495-0.49c0.46-0.323,0.772-0.77,0.93-1.324l6.631-23.369l6.819,23.398
		c0.19,0.537,0.513,0.972,0.954,1.289c0.904,0.66,2.127,0.649,2.995,0.006c0.455-0.321,0.767-0.766,0.927-1.32l9.051-30.658
		c0.197-0.653,0.127-1.293-0.208-1.905C459.984-370.406,459.479-370.808,458.811-371.007z"/>
	<path fill="#241F1F" d="M491.772-341.773c-0.391-0.616-0.944-1.007-1.646-1.161c-0.7-0.15-1.391-0.01-1.974,0.388
		c-1.04,0.634-2.157,1.128-3.324,1.47c-1.152,0.346-2.368,0.521-3.615,0.521c-1.786,0-3.48-0.342-5.037-1.018
		c-1.559-0.67-2.934-1.594-4.083-2.744c-1.143-1.145-2.072-2.514-2.764-4.064c-0.679-1.529-1.022-3.2-1.022-4.966
		c0-1.738,0.344-3.403,1.022-4.95c0.689-1.561,1.618-2.926,2.762-4.058c1.138-1.131,2.513-2.048,4.088-2.727
		c1.547-0.673,3.241-1.015,5.034-1.015c1.158,0,2.287,0.138,3.356,0.408c1.086,0.271,2.116,0.693,3.078,1.265
		c0.624,0.337,1.3,0.423,1.97,0.255c0.708-0.174,1.248-0.596,1.6-1.248c0.348-0.622,0.435-1.275,0.258-1.939
		c-0.181-0.685-0.604-1.208-1.251-1.55c-2.79-1.564-5.822-2.357-9.011-2.357c-2.489,0-4.858,0.479-7.039,1.425
		c-2.169,0.93-4.104,2.224-5.75,3.848c-1.627,1.612-2.937,3.521-3.892,5.673c-0.956,2.17-1.44,4.516-1.44,6.971
		c0,2.449,0.484,4.792,1.44,6.962c0.953,2.152,2.263,4.062,3.892,5.68c1.622,1.602,3.556,2.896,5.748,3.848
		c2.175,0.941,4.544,1.42,7.041,1.42c3.491,0,6.766-0.923,9.752-2.755c0.612-0.415,0.999-0.965,1.151-1.634
		C492.273-340.511,492.157-341.167,491.772-341.773z"/>
</g>
<g>
	<path fill="#241F1F" d="M561.999-332.882c0,1.673,1.375,3.023,3.075,3.023c1.692,0,3.076-1.351,3.076-3.023
		c0-1.097-1.138-2.387-2.044-3.674c-0.493-0.712-1.549-0.712-2.046,0C563.155-335.274,561.999-333.975,561.999-332.882"/>
	<path fill="#241F1F" d="M570.48-339.949c0,1.673,1.372,3.035,3.071,3.035c1.691,0,3.074-1.362,3.074-3.035
		c0-1.094-1.136-2.373-2.037-3.67c-0.497-0.704-1.557-0.704-2.054,0C571.635-342.328,570.48-341.042,570.48-339.949"/>
	<path fill="#241F1F" d="M553.523-339.949c0,1.673,1.38,3.035,3.07,3.035c1.702,0,3.075-1.362,3.075-3.035
		c0-1.094-1.136-2.373-2.042-3.67c-0.493-0.704-1.548-0.704-2.041,0C554.679-342.328,553.523-341.042,553.523-339.949"/>
	<path fill="#241F1F" d="M561.855-366.882c-6.383,1.144-11.219,5.586-11.523,10.979c-0.01,0.146,0.042,0.286,0.146,0.384
		c0.096,0.106,0.235,0.169,0.381,0.169h28.424c0.147,0,0.289-0.062,0.381-0.169c0.101-0.099,0.154-0.238,0.148-0.384
		c-0.321-5.547-5.411-10.087-12.065-11.066c-1.166-7.278-7.552-12.868-15.253-12.868c-8.521,0-15.462,6.829-15.462,15.232
		l-0.077,3.324c0,1.569,5.72,1.344,5.72-0.222l0.116-3.102c0-5.264,4.354-9.555,9.703-9.555
		C557.011-374.161,560.778-371.091,561.855-366.882"/>
	<path fill="#241F1F" d="M579.814-352.666h-29.481c-1.062,0-1.917,0.848-1.917,1.895c0,1.045,0.855,1.895,1.917,1.895h29.481
		c1.065,0,1.919-0.85,1.919-1.895C581.733-351.817,580.879-352.666,579.814-352.666"/>
</g>
<g>
	<path fill="#241F1F" d="M382.784-361.961c0-4.897-3.775-8.882-8.4-8.882c-4.629,0-8.405,3.976-8.405,8.871
		c0,1.4,1.077,2.53,2.4,2.53c1.32,0,2.399-1.132,2.399-2.53c0-2.104,1.617-3.816,3.605-3.816c1.987,0,3.607,1.713,3.607,3.816
		c0,2.795-2.148,5.06-4.787,5.06h-37.163c-1.324,0-2.393,1.138-2.393,2.543s1.069,2.537,2.393,2.537h37.163
		C378.484-351.833,382.784-356.377,382.784-361.961"/>
	<path fill="#241F1F" d="M335.445-362.134h13.316c4.493,0,8.136-3.874,8.136-8.623c0-4.135-3.178-7.516-7.097-7.516
		c-3.908,0-7.097,3.366-7.097,7.505c0,1.041,0.808,1.893,1.791,1.893c0.998,0,1.805-0.852,1.805-1.897
		c0-2.045,1.574-3.706,3.502-3.706c1.931,0,3.508,1.671,3.508,3.715c0,2.649-2.037,4.82-4.547,4.82h-13.316
		c-0.992,0-1.798,0.853-1.798,1.896C333.647-362.989,334.453-362.134,335.445-362.134"/>
	<path fill="#241F1F" d="M380.396-347.421h-34.771c-1.319,0-2.388,1.143-2.388,2.535c0,1.402,1.069,2.545,2.388,2.545h34.771
		c2.634,0,4.777,2.261,4.777,5.052c0,2.098-1.613,3.801-3.602,3.801c-1.98,0-3.609-1.707-3.609-3.81
		c0-1.395-1.067-2.531-2.395-2.531c-1.328,0-2.398,1.137-2.398,2.531c0,4.896,3.772,8.874,8.402,8.874
		c4.628,0,8.401-3.979,8.401-8.874C389.972-342.883,385.677-347.421,380.396-347.421"/>
</g>
<path fill-rule="evenodd" clip-rule="evenodd" fill="#241F1F" d="M268.125-341.389c-3.103,0-5.622,2.684-5.622,5.981
	c0,3.297,2.519,5.976,5.622,5.976c3.094,0,5.609-2.679,5.609-5.976C273.734-338.706,271.219-341.389,268.125-341.389 M298.216-362.3
	c-7.517-9.509-18.487-14.965-30.092-14.965c-11.616,0-22.579,5.456-30.098,14.965c-0.997,1.269-0.841,3.154,0.349,4.215
	c0.523,0.471,1.157,0.699,1.803,0.699c0.801,0,1.597-0.356,2.147-1.062c6.44-8.167,15.838-12.846,25.799-12.846
	c9.944,0,19.347,4.679,25.794,12.844c0.543,0.708,1.34,1.064,2.141,1.064c0.645,0,1.283-0.229,1.805-0.699
	C299.054-359.146,299.209-361.032,298.216-362.3 M268.125-365.305c-8.297,0-16.127,3.896-21.496,10.687
	c-0.996,1.266-0.847,3.15,0.342,4.214c0.526,0.469,1.167,0.701,1.806,0.701c0.801,0,1.592-0.363,2.146-1.062
	c4.3-5.438,10.56-8.562,17.201-8.562c6.634,0,12.894,3.124,17.188,8.562c0.563,0.698,1.351,1.062,2.149,1.062
	c0.642,0,1.279-0.227,1.813-0.701c1.187-1.063,1.338-2.948,0.338-4.214C284.244-361.409,276.416-365.305,268.125-365.305
	 M268.125-353.345c-4.983,0-9.688,2.338-12.9,6.414c-1,1.259-0.839,3.145,0.345,4.206c0.519,0.476,1.164,0.699,1.801,0.699
	c0.804,0,1.599-0.358,2.159-1.057c2.138-2.728,5.275-4.284,8.596-4.284c3.317,0,6.446,1.557,8.585,4.284
	c0.562,0.698,1.359,1.057,2.16,1.057c0.641,0,1.28-0.224,1.799-0.699c1.197-1.062,1.345-2.947,0.35-4.206
	C277.799-351.007,273.104-353.345,268.125-353.345"/>
<path fill="#241F1F" d="M797.704-349.254h4.725v18.677c0,1.1,0.915,1.996,2.03,1.996h13.867c1.124,0,2.032-0.896,2.032-1.996
	v-13.674h8.464v13.674c0,1.1,0.906,1.996,2.026,1.996h13.186c1.123,0,2.03-0.896,2.03-1.996v-18.677h5.751
	c0.809,0,1.555-0.499,1.864-1.232c0.303-0.732,0.133-1.597-0.442-2.168l-26.449-26.443c-0.777-0.767-2.067-0.801-2.84-0.028
	l-27.635,26.435c-0.61,0.573-0.777,1.439-0.479,2.205C796.138-349.715,796.89-349.254,797.704-349.254 M825.299-374.863
	l21.648,21.607h-2.914c-1.109,0-2.027,0.902-2.027,2.004v18.669h-9.132v-13.668c0-1.105-0.912-1.998-2.026-1.998h-12.522
	c-1.114,0-2.026,0.893-2.026,1.998v13.668h-9.81v-18.669c0-1.102-0.912-2.004-2.032-2.004h-1.754L825.299-374.863z"/>
<path fill="#241F1F" d="M639.846-330.847c-0.833,0-1.53-0.28-2.093-0.852c-0.562-0.569-0.842-1.26-0.842-2.081v-42.137
	c0-0.774,0.281-1.466,0.847-2.042c0.583-0.589,1.285-0.892,2.105-0.892h16.748c2.242,0,4.342,0.421,6.297,1.28
	c1.944,0.843,3.65,1.979,5.093,3.408c1.458,1.441,2.611,3.136,3.463,5.08c0.861,1.953,1.287,4.043,1.287,6.255
	c0,2.209-0.426,4.279-1.287,6.223c-0.852,1.929-2.004,3.611-3.463,5.043c-1.442,1.436-3.149,2.57-5.093,3.422
	c-1.955,0.85-4.055,1.27-6.297,1.27c-0.835,0-1.557-0.28-2.138-0.843c-0.592-0.567-0.896-1.263-0.896-2.092
	c0-0.816,0.304-1.514,0.896-2.093c0.581-0.561,1.303-0.842,2.138-0.842c1.405,0,2.709-0.259,3.957-0.812
	c1.228-0.532,2.304-1.265,3.224-2.178c0.919-0.911,1.646-1.983,2.17-3.186c0.528-1.221,0.799-2.521,0.799-3.913
	c0-1.395-0.272-2.701-0.799-3.933c-0.527-1.246-1.256-2.323-2.175-3.232c-0.936-0.911-2.014-1.623-3.245-2.149
	c-1.232-0.52-2.558-0.775-3.961-0.775h-13.802v39.134c0,0.821-0.292,1.512-0.857,2.081
	C641.359-331.127,640.661-330.847,639.846-330.847"/>
<g>
	<g>
		<path fill="#241F1F" d="M722.285-330.022h-0.872c-0.892,0-1.615-0.722-1.618-1.612l-0.139-45.045
			c-0.001-0.536,0.263-1.04,0.708-1.342c0.799-0.544,3.76-2.32,8.292-2.32c3.111,0,6.369,0.815,9.684,2.421
			c3.028,1.472,5.983,2.219,8.785,2.219c3.264,0,5.531-1.017,6.593-1.622c0.5-0.286,1.116-0.284,1.615,0.005
			c0.498,0.29,0.805,0.823,0.805,1.4v24.744c0,0.537-0.267,1.039-0.711,1.34c-1.032,0.698-3.906,2.32-8.301,2.32
			c-3.121,0-6.385-0.818-9.702-2.433c-3.066-1.44-6.053-2.176-8.855-2.176c-1.994,0-3.57,0.378-4.671,0.773l0.007,19.709
			c0,0.43-0.17,0.842-0.474,1.146C723.126-330.193,722.714-330.022,722.285-330.022z"/>
	</g>
</g>
<path fill="#FFFFFF" d="M54.256,17.305c-1.662-1.356-3.729-1.938-5.731-2.498c-3.689-1.035-6.353-1.778-6.353-6.629h-3.15v28.758
	c-1.498-1.092-3.42-1.746-5.512-1.746c-4.776,0-8.661,3.418-8.661,7.617c0,4.203,3.885,7.623,8.661,7.623
	c4.776,0,8.662-3.42,8.662-7.623V15.521c1.62,1.234,3.593,1.787,5.504,2.32c3.688,1.033,6.354,1.781,6.354,6.629h3.15
	C57.18,21.254,56.224,18.912,54.256,17.305"/>
<path fill="none" stroke="#FFFFFF" stroke-width="2" stroke-linecap="round" stroke-linejoin="round" stroke-miterlimit="10" d="
	M54.256,17.305c-1.662-1.356-3.729-1.938-5.731-2.498c-3.689-1.035-6.353-1.778-6.353-6.629h-3.15v28.758
	c-1.498-1.092-3.42-1.746-5.512-1.746c-4.776,0-8.661,3.418-8.661,7.617c0,4.203,3.885,7.623,8.661,7.623
	c4.776,0,8.662-3.42,8.662-7.623V15.521c1.62,1.234,3.593,1.787,5.504,2.32c3.688,1.033,6.354,1.781,6.354,6.629h3.15
	C57.18,21.254,56.224,18.912,54.256,17.305z"/>
<path fill="#FFFFFF" d="M122.837,42.081c-0.26-0.397-0.709-0.643-1.194-0.643H82.399c-0.48,0-0.933,0.245-1.195,0.643
	c-0.259,0.394-0.292,0.899-0.085,1.327l1.838,3.877c1.092,2.298,3.472,3.785,6.064,3.785h26.002c2.591,0,4.971-1.487,6.063-3.785
	l1.84-3.877C123.132,42.98,123.097,42.475,122.837,42.081"/>
<path fill="#FFFFFF" d="M83.233,38.877h19.761c0.734,0,1.331-0.607,1.331-1.343v-24.48c0-0.569-0.354-1.077-0.883-1.266
	c-0.53-0.192-1.122-0.025-1.476,0.412L82.206,36.671c-0.328,0.411-0.392,0.963-0.175,1.433
	C82.25,38.575,82.719,38.877,83.233,38.877"/>
<path fill="#FFFFFF" d="M109.034,38.877h11.687c0.484,0,0.931-0.235,1.193-0.621c0.262-0.388,0.298-0.869,0.097-1.292
	l-11.686-24.465c-0.276-0.578-0.938-0.897-1.591-0.764c-0.652,0.14-1.116,0.688-1.116,1.318v24.48
	C107.618,38.27,108.252,38.877,109.034,38.877"/>
<path fill="#FFFFFF" d="M441.174,37.037c-0.164,0.016-0.329,0.019-0.498,0.019c-0.45,0-0.892-0.067-1.322-0.164l-9.978,10.176
	c-0.489,0.502-0.489,1.317,0,1.812l2.584,2.634c0.489,0.5,1.282,0.5,1.77,0l11.991-12.232l-2.221-2.451L441.174,37.037z"/>
<path fill="none" stroke="#FFFFFF" stroke-linecap="round" stroke-linejoin="round" stroke-miterlimit="10" d="M441.174,37.037
	c-0.164,0.016-0.329,0.019-0.498,0.019c-0.45,0-0.892-0.067-1.322-0.164l-9.978,10.176c-0.489,0.502-0.489,1.317,0,1.812
	l2.584,2.634c0.489,0.5,1.282,0.5,1.77,0l11.991-12.232l-2.221-2.451L441.174,37.037z"/>
<path fill="#FFFFFF" d="M467.432,20.724c-0.468-0.475-1.226-0.475-1.694,0l-6.465,6.595c-0.613,0.626-1.604,0.626-2.216,0
	c-0.609-0.622-0.609-1.631,0-2.255l6.435-6.559c0.486-0.501,0.486-1.301,0-1.795c-0.489-0.5-1.278-0.5-1.763,0l-6.431,6.562
	c-0.612,0.624-1.599,0.624-2.214,0c-0.611-0.622-0.611-1.636,0-2.26l6.464-6.593c0.47-0.482,0.47-1.257,0-1.738
	c-0.469-0.476-1.227-0.476-1.697,0l-7.271,7.422c-1.75,1.784-2.302,4.296-1.738,6.571l4.877,4.98
	c2.234,0.574,4.692,0.011,6.439-1.782l7.275-7.411C467.9,21.981,467.9,21.206,467.432,20.724"/>
<path fill="none" stroke="#FFFFFF" stroke-linecap="round" stroke-linejoin="round" stroke-miterlimit="10" d="M467.432,20.724
	c-0.468-0.475-1.226-0.475-1.694,0l-6.465,6.595c-0.613,0.626-1.604,0.626-2.216,0c-0.609-0.622-0.609-1.631,0-2.255l6.435-6.559
	c0.486-0.501,0.486-1.301,0-1.795c-0.489-0.5-1.278-0.5-1.763,0l-6.431,6.562c-0.612,0.624-1.599,0.624-2.214,0
	c-0.611-0.622-0.611-1.636,0-2.26l6.464-6.593c0.47-0.482,0.47-1.257,0-1.738c-0.469-0.476-1.227-0.476-1.697,0l-7.271,7.422
	c-1.75,1.784-2.302,4.296-1.738,6.571l4.877,4.98c2.234,0.574,4.692,0.011,6.439-1.782l7.275-7.411
	C467.9,21.981,467.9,21.206,467.432,20.724z"/>
<path fill="#FFFFFF" d="M432.101,13.348c-0.248-0.247-0.585-0.39-0.932-0.39c-0.074,0-0.147,0.004-0.219,0.023
	c-0.422,0.072-0.783,0.346-0.968,0.739c-2.13,4.492-1.242,9.867,2.217,13.4l6.19,6.312c0.609,0.624,1.43,0.967,2.288,0.967
	c0.094,0,0.186-0.004,0.277-0.013l3.591-0.312l15.665,17.243c0.244,0.268,0.584,0.425,0.942,0.434h0.024
	c0.351,0,0.686-0.145,0.936-0.394l2.684-2.738c0.248-0.253,0.386-0.596,0.386-0.957c0-0.356-0.138-0.701-0.386-0.944L432.101,13.348
	z"/>
<path fill="none" stroke="#FFFFFF" stroke-linecap="round" stroke-linejoin="round" stroke-miterlimit="10" d="M432.101,13.348
	c-0.248-0.247-0.585-0.39-0.932-0.39c-0.074,0-0.147,0.004-0.219,0.023c-0.422,0.072-0.783,0.346-0.968,0.739
	c-2.13,4.492-1.242,9.867,2.217,13.4l6.19,6.312c0.609,0.624,1.43,0.967,2.288,0.967c0.094,0,0.186-0.004,0.277-0.013l3.591-0.312
	l15.665,17.243c0.244,0.268,0.584,0.425,0.942,0.434h0.024c0.351,0,0.686-0.145,0.936-0.394l2.684-2.738
	c0.248-0.253,0.386-0.596,0.386-0.957c0-0.356-0.138-0.701-0.386-0.944L432.101,13.348z"/>
<path fill="#FFFFFF" d="M261.452,40.407l-1.786-10.157c-0.185-1.032-1.081-1.799-2.126-1.799h-1.205l-0.457-4.745
	c-0.489-5.089-4.708-8.925-9.821-8.925H234.66c-5.109,0-9.334,3.836-9.822,8.925l-0.454,4.745h-1.201
	c-1.047,0-1.944,0.767-2.127,1.799l-1.785,10.146c-0.225,1.252,0.128,2.549,0.949,3.526c0.789,0.94,1.937,1.501,3.169,1.545v1.682
	c0,2.387,1.914,4.297,4.3,4.297h1.358c2.386,0,4.313-1.91,4.313-4.297V45.49h13.994v1.658c0,2.387,1.935,4.297,4.32,4.297h1.358
	c2.386,0,4.301-1.917,4.301-4.297v-1.682c1.231-0.039,2.378-0.593,3.164-1.54C261.321,42.949,261.675,41.659,261.452,40.407
	 M227.175,41.585c-2.016,0-3.649-1.638-3.649-3.649c0-2.017,1.633-3.646,3.649-3.646c2.01,0,3.645,1.629,3.645,3.646
	C230.82,39.947,229.186,41.585,227.175,41.585 M228.079,28.448l0.426-4.387c0.304-3.188,2.953-5.585,6.155-5.585h0.649v1.383
	c0,1.191,0.962,2.18,2.159,2.18h5.792c1.196,0,2.154-0.988,2.154-2.18v-1.383h0.648c3.205,0,5.85,2.396,6.156,5.585l0.425,4.387
	H228.079z M253.546,41.585c-2.015,0-3.645-1.638-3.645-3.649c0-2.017,1.63-3.646,3.645-3.646c2.015,0,3.645,1.629,3.645,3.646
	C257.19,39.947,255.561,41.585,253.546,41.585"/>
<path fill="#FFFFFF" d="M168.789,33.446l13.597-15.313c1.1-1.244,0.796-2.326,0.615-2.734c-0.182-0.409-0.784-1.358-2.438-1.358
	H158.6c-0.458-2.974-3.019-5.248-6.098-5.248c-3.401,0-6.169,2.779-6.169,6.201c0,3.424,2.768,6.207,6.169,6.207
	c0.113,0,0.232-0.009,0.367-0.015l0.034-0.004l10.888,12.265c0.087,0.103,0.18,0.192,0.275,0.28v8.308
	c0,0.957-0.684,2.188-1.495,2.685l-7.572,4.662c-0.695,0.424-0.981,0.877-0.855,1.329c0.128,0.461,0.607,0.688,1.42,0.688h21.451
	c0.815,0,1.293-0.228,1.421-0.688c0.126-0.452-0.161-0.905-0.855-1.329l-7.572-4.662c-0.812-0.496-1.496-1.728-1.496-2.685v-8.308
	C168.607,33.639,168.703,33.549,168.789,33.446 M155.515,19.508l-2.121-2.39h25.792l-2.122,2.39H155.515z M166.29,25.993
	c0-1.332,1.072-2.408,2.396-2.408c1.325,0,2.398,1.076,2.398,2.408c0,1.33-1.073,2.41-2.398,2.41
	C167.361,28.403,166.29,27.323,166.29,25.993"/>
<path fill="#FFFFFF" d="M327.078,50.346l-1.611-29.571c-0.049-0.813-0.766-1.462-1.635-1.462h-4.763v-1.45
	c0-4.953-4.248-8.981-9.47-8.981c-5.221,0-9.466,4.028-9.466,8.981v1.45h-4.764c-0.87,0-1.586,0.648-1.629,1.462l-1.618,29.652
	c-0.025,0.426,0.138,0.838,0.447,1.149c0.309,0.309,0.735,0.484,1.18,0.484h31.703h0.002c0.902,0,1.636-0.693,1.636-1.552
	C327.089,50.449,327.086,50.405,327.078,50.346 M302.46,25.574c-0.966,0-1.75-0.739-1.75-1.663c0-0.91,0.784-1.653,1.75-1.653
	c0.963,0,1.748,0.743,1.748,1.653C304.208,24.835,303.423,25.574,302.46,25.574 M315.396,19.312h-11.584v-1.687
	c0-2.805,2.594-5.094,5.787-5.094c3.196,0,5.798,2.289,5.798,5.094V19.312z M316.749,25.574c-0.966,0-1.75-0.739-1.75-1.663
	c0-0.91,0.784-1.653,1.75-1.653c0.965,0,1.747,0.743,1.747,1.653C318.496,24.835,317.713,25.574,316.749,25.574"/>
<path fill="#FFFFFF" d="M398.442,14.765c-2.591-2.634-6.037-4.082-9.7-4.082c-3.408,0-6.625,1.258-9.144,3.552
	c-2.519-2.292-5.735-3.548-9.143-3.548h-0.002c-3.664,0-7.108,1.45-9.699,4.082c-2.592,2.63-4.02,6.127-4.02,9.849
	c0,3.72,1.428,7.219,4.02,9.852l0.327,0.331c0,0.032-0.002,0.064-0.002,0.094c0,1.224,0.469,2.371,1.317,3.231
	c0.766,0.774,1.754,1.235,2.817,1.322v0.078c0,1.217,0.468,2.366,1.318,3.227c0.851,0.865,1.979,1.337,3.18,1.337
	c0.026,0,0.052-0.002,0.077-0.002c0.083,1.042,0.514,2.062,1.295,2.859c0.765,0.774,1.754,1.239,2.819,1.326
	c-0.001,0.023-0.002,0.048-0.002,0.067c0,1.223,0.469,2.372,1.319,3.231c0.848,0.862,1.979,1.342,3.182,1.342h0.002
	c1.2,0,2.33-0.475,3.182-1.338l2.961-3.013c0.452-0.456,0.793-0.995,1.017-1.58c0.58-0.229,1.109-0.576,1.559-1.03
	c0.814-0.827,1.278-1.915,1.317-3.077c1.144-0.038,2.215-0.51,3.028-1.336c0.772-0.786,1.233-1.806,1.309-2.904h0.026
	c1.151,0,2.304-0.442,3.184-1.332c0.352-0.356,0.637-0.763,0.851-1.204l1.606-1.63C403.793,29.039,403.793,20.199,398.442,14.765
	 M364.417,36.069c-0.31-0.312-0.479-0.729-0.479-1.176s0.171-0.864,0.481-1.181l2.959-3.002c0.312-0.315,0.724-0.491,1.165-0.491
	c0.438,0,0.85,0.176,1.158,0.491c0.643,0.647,0.643,1.708,0.007,2.356l-0.167,0.169c-0.016,0.018-0.033,0.032-0.049,0.047
	l-2.751,2.794c-0.31,0.313-0.721,0.487-1.157,0.487C365.145,36.564,364.73,36.391,364.417,36.069 M369.711,41.188
	c-0.438,0-0.85-0.171-1.161-0.489c-0.309-0.314-0.481-0.731-0.481-1.178c-0.001-0.445,0.172-0.863,0.482-1.181l0.203-0.206
	c0.003-0.002,0.006-0.004,0.009-0.008l2.774-2.815c0.308-0.3,0.709-0.465,1.136-0.465c0.439,0,0.853,0.175,1.164,0.487
	c0.641,0.65,0.641,1.711,0.003,2.358l-2.969,3.005C370.563,41.016,370.151,41.188,369.711,41.188 M373.105,44.896
	c-0.639-0.648-0.638-1.71,0.002-2.357l2.961-3.005c0.312-0.315,0.727-0.491,1.164-0.491c0.438,0,0.849,0.175,1.16,0.488
	c0.311,0.316,0.482,0.735,0.482,1.178c0,0.446-0.17,0.867-0.481,1.182l-2.966,3.008c-0.31,0.317-0.721,0.489-1.159,0.489
	S373.418,45.213,373.105,44.896 M379.562,49.523c-0.31,0.312-0.721,0.488-1.16,0.488c-0.439,0-0.851-0.176-1.163-0.49
	c-0.311-0.317-0.481-0.734-0.481-1.179c0-0.447,0.17-0.863,0.482-1.18l2.96-3.006c0.312-0.317,0.724-0.492,1.162-0.492
	c0.439,0,0.851,0.175,1.163,0.491c0.31,0.314,0.481,0.731,0.481,1.18c0,0.443-0.17,0.86-0.481,1.177L379.562,49.523z
	 M391.638,35.249l-0.169-0.173h-0.002l-6.168-6.263c-0.56-0.566-1.463-0.566-2.021,0c-0.557,0.566-0.557,1.485,0,2.053l6.167,6.259
	l0.001,0.002c0.312,0.317,0.481,0.736,0.481,1.182s-0.172,0.863-0.484,1.181c-0.308,0.314-0.72,0.486-1.16,0.486
	c-0.438,0-0.851-0.172-1.163-0.488l-6.168-6.261c-0.556-0.568-1.462-0.568-2.019,0c-0.558,0.565-0.558,1.481,0,2.05l6.167,6.263
	c0.309,0.313,0.481,0.734,0.48,1.179c0,0.239-0.05,0.466-0.143,0.678c-0.218-0.475-0.519-0.912-0.896-1.292
	c-0.764-0.773-1.752-1.233-2.813-1.322c0-0.024,0.001-0.049,0.001-0.073c-0.001-1.221-0.471-2.369-1.319-3.229
	c-0.851-0.861-1.98-1.339-3.18-1.339c-0.025,0-0.051,0.001-0.077,0.001c-0.083-1.042-0.514-2.062-1.298-2.858
	c-0.766-0.776-1.757-1.237-2.822-1.322c0.018-1.194-0.417-2.396-1.312-3.304c-0.849-0.862-1.978-1.338-3.18-1.338
	c-1.204,0-2.334,0.476-3.185,1.338l-2.962,3.006c-0.052,0.055-0.104,0.11-0.155,0.166c-1.711-2.003-2.647-4.533-2.647-7.212
	c0-2.946,1.129-5.714,3.181-7.797c2.052-2.084,4.78-3.232,7.681-3.232h0.001c2.635,0,5.126,0.949,7.1,2.688l-5.486,5.572
	c-1.754,1.781-1.755,4.679,0,6.461c1.755,1.783,4.61,1.783,6.366-0.002l5.508-5.593l10.023,10.177c0.31,0.313,0.48,0.73,0.481,1.176
	c0,0.217-0.042,0.426-0.117,0.621c-0.006,0.016-0.014,0.031-0.02,0.049c-0.082,0.189-0.197,0.363-0.344,0.513
	C393.324,35.899,392.278,35.897,391.638,35.249 M396.816,31.998c-0.213-0.424-0.492-0.816-0.832-1.161l-11.031-11.199l-0.001-0.002
	c-0.522-0.528-1.346-0.563-1.907-0.103c-0.002,0.001-0.002,0.001-0.003,0.002c-0.024,0.021-0.048,0.045-0.071,0.066
	c-0.013,0.011-0.026,0.021-0.038,0.034l-6.518,6.62c-0.643,0.65-1.685,0.65-2.325,0.001c-0.641-0.65-0.64-1.708,0.001-2.361
	l6.502-6.604c0.006-0.005,0.011-0.009,0.018-0.014c0.005-0.006,0.008-0.01,0.015-0.017l0.436-0.443
	c2.052-2.084,4.779-3.234,7.68-3.234c2.9,0,5.626,1.149,7.679,3.232C400.522,20.98,400.653,27.672,396.816,31.998"/>
</svg>
