<?xml version="1.0" encoding="utf-8"?>
<!-- Generator: Adobe Illustrator 19.2.0, SVG Export Plug-In . SVG Version: 6.00 Build 0)  -->
<svg version="1.1" id="Layer_1" xmlns="http://www.w3.org/2000/svg" xmlns:xlink="http://www.w3.org/1999/xlink" x="0px" y="0px"
	 width="1460.9px" height="62px" viewBox="0 0 1460.9 62" style="enable-background:new 0 0 1460.9 62;" xml:space="preserve">
<style type="text/css">
	.st0{fill:#241F1F;}
	.st1{fill:#A42C1F;}
	.st2{fill:#039A42;}
	.st3{fill:#FBE235;}
	.st4{fill:#FFFFFF;}
	.st5{fill:#BA5F6A;}
	.st6{clip-path:url(#SVGID_2_);}
	.st7{clip-path:url(#SVGID_4_);}
</style>
<g>
	<path class="st0" d="M244.1,14.3c-0.6-0.2-1.3-0.1-1.9,0.2c-0.6,0.3-1,0.8-1.2,1.5l-6.6,22.4L227.8,16c-0.2-0.5-0.5-1-1-1.3
		c-0.5-0.3-1-0.5-1.5-0.5h-0.7c-0.6,0-1.1,0.2-1.6,0.5c-0.5,0.3-0.8,0.8-0.9,1.3l-6.3,22.4L209,16c-0.2-0.7-0.6-1.2-1.2-1.5
		c-0.6-0.3-1.3-0.4-1.9-0.2c-0.7,0.2-1.2,0.6-1.5,1.2c-0.3,0.6-0.4,1.3-0.2,1.9l9.3,30.7c0.2,0.5,0.5,1,0.9,1.3
		c0.4,0.3,0.9,0.5,1.4,0.5c0.1,0,0.1,0,0.1,0c0.6,0,1.1-0.2,1.5-0.5c0.5-0.3,0.8-0.8,0.9-1.3l6.6-23.4l6.8,23.4c0.2,0.5,0.5,1,1,1.3
		c0.9,0.7,2.1,0.6,3,0c0.5-0.3,0.8-0.8,0.9-1.3l9.1-30.7c0.2-0.7,0.1-1.3-0.2-1.9C245.3,14.9,244.8,14.5,244.1,14.3z"/>
	<path class="st0" d="M277.1,43.5c-0.4-0.6-0.9-1-1.6-1.2c-0.7-0.1-1.4,0-2,0.4c-1,0.6-2.2,1.1-3.3,1.5c-1.2,0.3-2.4,0.5-3.6,0.5
		c-1.8,0-3.5-0.3-5-1c-1.6-0.7-2.9-1.6-4.1-2.7c-1.1-1.1-2.1-2.5-2.8-4.1c-0.7-1.5-1-3.2-1-5c0-1.7,0.3-3.4,1-5
		c0.7-1.6,1.6-2.9,2.8-4.1c1.1-1.1,2.5-2,4.1-2.7c1.5-0.7,3.2-1,5-1c1.2,0,2.3,0.1,3.4,0.4c1.1,0.3,2.1,0.7,3.1,1.3
		c0.6,0.3,1.3,0.4,2,0.3c0.7-0.2,1.2-0.6,1.6-1.2c0.3-0.6,0.4-1.3,0.3-1.9c-0.2-0.7-0.6-1.2-1.3-1.5c-2.8-1.6-5.8-2.4-9-2.4
		c-2.5,0-4.9,0.5-7,1.4c-2.2,0.9-4.1,2.2-5.8,3.8c-1.6,1.6-2.9,3.5-3.9,5.7c-1,2.2-1.4,4.5-1.4,7c0,2.4,0.5,4.8,1.4,7
		c1,2.2,2.3,4.1,3.9,5.7c1.6,1.6,3.6,2.9,5.7,3.8c2.2,0.9,4.5,1.4,7,1.4c3.5,0,6.8-0.9,9.8-2.8c0.6-0.4,1-1,1.2-1.6
		C277.6,44.8,277.4,44.1,277.1,43.5z"/>
</g>
<g>
	<path class="st0" d="M347.3,52.4c0,1.7,1.4,3,3.1,3c1.7,0,3.1-1.4,3.1-3c0-1.1-1.1-2.4-2-3.7c-0.5-0.7-1.5-0.7-2,0
		C348.4,50,347.3,51.3,347.3,52.4"/>
	<path class="st0" d="M355.8,45.3c0,1.7,1.4,3,3.1,3c1.7,0,3.1-1.4,3.1-3c0-1.1-1.1-2.4-2-3.7c-0.5-0.7-1.6-0.7-2.1,0
		C356.9,43,355.8,44.2,355.8,45.3"/>
	<path class="st0" d="M338.8,45.3c0,1.7,1.4,3,3.1,3c1.7,0,3.1-1.4,3.1-3c0-1.1-1.1-2.4-2-3.7c-0.5-0.7-1.5-0.7-2,0
		C340,43,338.8,44.2,338.8,45.3"/>
	<path class="st0" d="M347.1,18.4c-6.4,1.1-11.2,5.6-11.5,11c0,0.1,0,0.3,0.1,0.4c0.1,0.1,0.2,0.2,0.4,0.2h28.4
		c0.1,0,0.3-0.1,0.4-0.2c0.1-0.1,0.2-0.2,0.1-0.4c-0.3-5.5-5.4-10.1-12.1-11.1c-1.2-7.3-7.6-12.9-15.3-12.9
		c-8.5,0-15.5,6.8-15.5,15.2l-0.1,3.3c0,1.6,5.7,1.3,5.7-0.2l0.1-3.1c0-5.3,4.4-9.6,9.7-9.6C342.3,11.1,346.1,14.2,347.1,18.4"/>
	<path class="st0" d="M365.1,32.6h-29.5c-1.1,0-1.9,0.8-1.9,1.9c0,1,0.9,1.9,1.9,1.9h29.5c1.1,0,1.9-0.9,1.9-1.9
		C367,33.5,366.2,32.6,365.1,32.6"/>
</g>
<g>
	<path class="st0" d="M168.1,23.3c0-4.9-3.8-8.9-8.4-8.9c-4.6,0-8.4,4-8.4,8.9c0,1.4,1.1,2.5,2.4,2.5c1.3,0,2.4-1.1,2.4-2.5
		c0-2.1,1.6-3.8,3.6-3.8c2,0,3.6,1.7,3.6,3.8c0,2.8-2.1,5.1-4.8,5.1h-37.2c-1.3,0-2.4,1.1-2.4,2.5c0,1.4,1.1,2.5,2.4,2.5h37.2
		C163.8,33.5,168.1,28.9,168.1,23.3"/>
	<path class="st0" d="M120.7,23.2H134c4.5,0,8.1-3.9,8.1-8.6c0-4.1-3.2-7.5-7.1-7.5c-3.9,0-7.1,3.4-7.1,7.5c0,1,0.8,1.9,1.8,1.9
		c1,0,1.8-0.9,1.8-1.9c0-2,1.6-3.7,3.5-3.7c1.9,0,3.5,1.7,3.5,3.7c0,2.6-2,4.8-4.5,4.8h-13.3c-1,0-1.8,0.9-1.8,1.9
		C118.9,22.3,119.7,23.2,120.7,23.2"/>
	<path class="st0" d="M165.7,37.9h-34.8c-1.3,0-2.4,1.1-2.4,2.5c0,1.4,1.1,2.5,2.4,2.5h34.8c2.6,0,4.8,2.3,4.8,5.1
		c0,2.1-1.6,3.8-3.6,3.8c-2,0-3.6-1.7-3.6-3.8c0-1.4-1.1-2.5-2.4-2.5s-2.4,1.1-2.4,2.5c0,4.9,3.8,8.9,8.4,8.9c4.6,0,8.4-4,8.4-8.9
		C175.3,42.4,171,37.9,165.7,37.9"/>
</g>
<path class="st0" d="M53.4,43.9c-3.1,0-5.6,2.7-5.6,6c0,3.3,2.5,6,5.6,6c3.1,0,5.6-2.7,5.6-6C59,46.6,56.5,43.9,53.4,43.9 M83.5,23
	C76,13.5,65,8,53.4,8c-11.6,0-22.6,5.5-30.1,15c-1,1.3-0.8,3.2,0.3,4.2c0.5,0.5,1.2,0.7,1.8,0.7c0.8,0,1.6-0.4,2.1-1.1
	C34,18.7,43.4,14,53.4,14c9.9,0,19.3,4.7,25.8,12.8c0.5,0.7,1.3,1.1,2.1,1.1c0.6,0,1.3-0.2,1.8-0.7C84.3,26.1,84.5,24.3,83.5,23
	 M53.4,20c-8.3,0-16.1,3.9-21.5,10.7c-1,1.3-0.8,3.2,0.3,4.2c0.5,0.5,1.2,0.7,1.8,0.7c0.8,0,1.6-0.4,2.1-1.1
	c4.3-5.4,10.6-8.6,17.2-8.6c6.6,0,12.9,3.1,17.2,8.6c0.6,0.7,1.4,1.1,2.1,1.1c0.6,0,1.3-0.2,1.8-0.7c1.2-1.1,1.3-2.9,0.3-4.2
	C69.5,23.9,61.7,20,53.4,20 M53.4,31.9c-5,0-9.7,2.3-12.9,6.4c-1,1.3-0.8,3.1,0.3,4.2c0.5,0.5,1.2,0.7,1.8,0.7
	c0.8,0,1.6-0.4,2.2-1.1c2.1-2.7,5.3-4.3,8.6-4.3c3.3,0,6.4,1.6,8.6,4.3c0.6,0.7,1.4,1.1,2.2,1.1c0.6,0,1.3-0.2,1.8-0.7
	c1.2-1.1,1.3-2.9,0.3-4.2C63.1,34.3,58.4,31.9,53.4,31.9"/>
<path class="st0" d="M500,35h4.7v18.6c0,1.1,0.9,2,2,2h13.8c1.1,0,2-0.9,2-2V40h8.4v13.6c0,1.1,0.9,2,2,2h13.2c1.1,0,2-0.9,2-2V35
	h5.7c0.8,0,1.6-0.5,1.9-1.2c0.3-0.7,0.1-1.6-0.4-2.2L529,5.3c-0.8-0.8-2.1-0.8-2.8,0l-27.6,26.4c-0.6,0.6-0.8,1.4-0.5,2.2
	C498.4,34.6,499.2,35,500,35 M527.5,9.5L549.1,31h-2.9c-1.1,0-2,0.9-2,2v18.6h-9.1V38c0-1.1-0.9-2-2-2h-12.5c-1.1,0-2,0.9-2,2v13.6
	h-9.8V33c0-1.1-0.9-2-2-2H505L527.5,9.5z"/>
<path class="st0" d="M425.1,54.4c-0.8,0-1.5-0.3-2.1-0.9c-0.6-0.6-0.8-1.3-0.8-2.1V9.4c0-0.8,0.3-1.5,0.8-2c0.6-0.6,1.3-0.9,2.1-0.9
	h16.7c2.2,0,4.3,0.4,6.3,1.3c1.9,0.8,3.6,2,5.1,3.4c1.5,1.4,2.6,3.1,3.5,5.1c0.9,2,1.3,4,1.3,6.3c0,2.2-0.4,4.3-1.3,6.2
	c-0.9,1.9-2,3.6-3.5,5c-1.4,1.4-3.1,2.6-5.1,3.4c-2,0.8-4.1,1.3-6.3,1.3c-0.8,0-1.6-0.3-2.1-0.8c-0.6-0.6-0.9-1.3-0.9-2.1
	c0-0.8,0.3-1.5,0.9-2.1c0.6-0.6,1.3-0.8,2.1-0.8c1.4,0,2.7-0.3,4-0.8c1.2-0.5,2.3-1.3,3.2-2.2c0.9-0.9,1.6-2,2.2-3.2
	c0.5-1.2,0.8-2.5,0.8-3.9c0-1.4-0.3-2.7-0.8-3.9c-0.5-1.2-1.3-2.3-2.2-3.2c-0.9-0.9-2-1.6-3.2-2.1c-1.2-0.5-2.6-0.8-4-0.8h-13.8
	v39.1c0,0.8-0.3,1.5-0.9,2.1C426.6,54.2,425.9,54.4,425.1,54.4"/>
<g>
	<path class="st0" d="M760.2,56.2C760.2,56.2,760.1,56.2,760.2,56.2H758c-0.3,0-0.6-0.3-0.6-0.6l-0.2-46.8c0-0.2,0.1-0.3,0.2-0.5
		c0.1-0.1,3.3-2.5,8.9-2.5c3.3,0,6.7,0.8,10.2,2.4c3.3,1.5,6.6,2.3,9.7,2.3c5.2,0,8.1-2.2,8.2-2.2c0.2-0.1,0.4-0.2,0.7-0.1
		c0.2,0.1,0.4,0.3,0.4,0.5v26.6c0,0.2-0.1,0.3-0.2,0.5c-0.1,0.1-3.3,2.5-8.9,2.5c-3.3,0-6.7-0.8-10.2-2.4c-3.4-1.5-6.7-2.3-9.7-2.3
		c-2.4,0-4.3,0.5-5.5,0.9l0,20.8c0,0.1,0,0.1,0,0.2C760.8,55.9,760.5,56.2,760.2,56.2"/>
	<path class="st0" d="M757.4,55h0.9l0-20.8c0-0.2,0.1-0.4,0.4-0.5c1.3-0.5,3.5-1.2,6.4-1.2c3.3,0,6.7,0.8,10.3,2.4
		c3.3,1.5,6.6,2.3,9.7,2.3c4.4,0,7.2-1.6,7.9-2.1V9.9c-1.4,0.7-4.1,1.9-7.9,1.9c-3.3,0-6.7-0.8-10.2-2.4c-3.3-1.5-6.6-2.3-9.6-2.3
		c-4.3,0-7.1,1.6-7.9,2.1L757.4,55z"/>
	<path class="st1" d="M765.9,30.1c3.9,0,7.8,0.9,11.6,2.7c2.9,1.4,5.9,2.1,8.7,2.1c3.1,0,5.2-0.8,6-1.2V13.3
		c-1.1,0.4-3.1,0.9-5.9,0.9c-3.7,0-7.6-0.9-11.5-2.6c-3.1-1.4-6.1-2.1-8.9-2.1c-3,0-4.9,0.8-5.6,1.2v20.1
		C761.4,30.5,763.3,30.1,765.9,30.1"/>
</g>
<g>
	<path class="st0" d="M677.1,56.2C677,56.2,677,56.2,677.1,56.2h-2.2c-0.3,0-0.6-0.3-0.6-0.6l-0.2-46.8c0-0.2,0.1-0.3,0.2-0.5
		c0.1-0.1,3.3-2.5,8.9-2.5c3.3,0,6.7,0.8,10.2,2.4c3.3,1.5,6.6,2.3,9.7,2.3c5.2,0,8.1-2.2,8.2-2.2c0.2-0.1,0.4-0.2,0.7-0.1
		c0.2,0.1,0.4,0.3,0.4,0.5v26.6c0,0.2-0.1,0.3-0.2,0.5c-0.1,0.1-3.3,2.5-8.9,2.5c-3.3,0-6.7-0.8-10.2-2.4c-3.4-1.5-6.7-2.3-9.7-2.3
		c-2.4,0-4.3,0.5-5.5,0.9l0,20.8c0,0.1,0,0.1,0,0.2C677.7,55.9,677.4,56.2,677.1,56.2"/>
	<path class="st0" d="M674.2,55h0.9l0-20.8c0-0.2,0.1-0.4,0.4-0.5c1.3-0.5,3.5-1.2,6.4-1.2c3.3,0,6.7,0.8,10.3,2.4
		c3.3,1.5,6.6,2.3,9.7,2.3c4.4,0,7.2-1.6,7.9-2.1V9.9c-1.4,0.7-4.1,1.9-7.9,1.9c-3.3,0-6.7-0.8-10.2-2.4c-3.3-1.5-6.6-2.3-9.6-2.3
		c-4.4,0-7.1,1.6-7.9,2.1L674.2,55z"/>
	<path class="st2" d="M682.8,30.1c3.9,0,7.8,0.9,11.6,2.7c2.9,1.4,5.9,2.1,8.7,2.1c3.1,0,5.2-0.8,6-1.2V13.3
		c-1.1,0.4-3.1,0.9-5.9,0.9c-3.7,0-7.6-0.9-11.5-2.6c-3.1-1.4-6.1-2.1-8.9-2.1c-3,0-4.9,0.8-5.6,1.2v20.1
		C678.3,30.5,680.2,30.1,682.8,30.1"/>
</g>
<g>
	<path class="st0" d="M593.9,56.2C593.9,56.2,593.9,56.2,593.9,56.2h-2.2c-0.3,0-0.6-0.3-0.6-0.6L591,8.9c0-0.2,0.1-0.3,0.2-0.5
		c0.1-0.1,3.3-2.5,8.9-2.5c3.3,0,6.7,0.8,10.2,2.4c3.3,1.5,6.6,2.3,9.7,2.3c5.2,0,8.1-2.2,8.2-2.2c0.2-0.1,0.4-0.2,0.7-0.1
		c0.2,0.1,0.4,0.3,0.4,0.5v26.6c0,0.2-0.1,0.3-0.2,0.5c-0.1,0.1-3.3,2.5-8.9,2.5c-3.3,0-6.7-0.8-10.2-2.4c-3.4-1.5-6.7-2.3-9.7-2.3
		c-2.4,0-4.3,0.5-5.5,0.9l0,20.8c0,0.1,0,0.1,0,0.2C594.6,55.9,594.3,56.2,593.9,56.2"/>
	<path class="st0" d="M591.1,55h0.9l0-20.8c0-0.2,0.1-0.4,0.4-0.5c1.3-0.5,3.5-1.2,6.4-1.2c3.3,0,6.7,0.8,10.3,2.4
		c3.3,1.5,6.6,2.3,9.7,2.3c4.4,0,7.2-1.6,7.9-2.1V9.9c-1.4,0.7-4.1,1.9-7.9,1.9c-3.3,0-6.7-0.8-10.2-2.4c-3.3-1.5-6.6-2.3-9.6-2.3
		c-4.3,0-7.1,1.6-7.9,2.1L591.1,55z"/>
	<path class="st3" d="M599.6,30.1c3.9,0,7.8,0.9,11.6,2.7c2.9,1.4,5.9,2.1,8.7,2.1c3.1,0,5.2-0.8,6-1.2V13.3
		c-1.1,0.4-3.1,0.9-5.9,0.9c-3.7,0-7.6-0.9-11.5-2.6c-3.1-1.4-6.1-2.1-8.9-2.1c-3,0-4.9,0.8-5.6,1.2v20.1
		C595.2,30.5,597.1,30.1,599.6,30.1"/>
</g>
<g>
	<path class="st4" d="M940.8,49.1C940.8,49.1,940.7,49.1,940.8,49.1h-1.5c-0.2,0-0.4-0.2-0.4-0.4L938.7,16c0-0.1,0.1-0.2,0.2-0.3
		c0.1-0.1,2.3-1.7,6.2-1.7c2.3,0,4.7,0.6,7.1,1.7c2.3,1.1,4.6,1.6,6.8,1.6c3.6,0,5.7-1.5,5.7-1.6c0.1-0.1,0.3-0.1,0.5-0.1
		c0.2,0.1,0.2,0.2,0.2,0.4v18.6c0,0.1-0.1,0.2-0.2,0.3c-0.1,0.1-2.3,1.7-6.3,1.7c-2.3,0-4.7-0.6-7.1-1.7c-2.4-1.1-4.7-1.6-6.8-1.6
		c-1.7,0-3,0.3-3.9,0.6l0,14.6c0,0,0,0.1,0,0.1C941.2,48.9,941,49.1,940.8,49.1"/>
	<path class="st4" d="M938.8,48.3h0.7l0-14.5c0-0.2,0.1-0.3,0.3-0.4c0.9-0.4,2.4-0.8,4.5-0.8c2.3,0,4.7,0.6,7.2,1.7
		c2.3,1.1,4.6,1.6,6.8,1.6c3,0,5-1.1,5.6-1.5V16.7c-1,0.5-2.8,1.3-5.6,1.3c-2.3,0-4.7-0.6-7.1-1.7c-2.3-1.1-4.6-1.6-6.7-1.6
		c-3,0-5,1.1-5.5,1.5L938.8,48.3z"/>
	<path class="st1" d="M944.7,30.8c2.7,0,5.5,0.6,8.1,1.9c2,1,4.1,1.5,6.1,1.5c2.2,0,3.7-0.6,4.2-0.8V19.1c-0.8,0.3-2.2,0.6-4.1,0.6
		c-2.6,0-5.3-0.6-8-1.9c-2.2-1-4.2-1.5-6.2-1.5c-2.1,0-3.4,0.6-3.9,0.8v14.1C941.6,31.1,943,30.8,944.7,30.8"/>
</g>
<g>
	<path class="st4" d="M882.7,49.1C882.7,49.1,882.6,49.1,882.7,49.1h-1.5c-0.2,0-0.4-0.2-0.4-0.4L880.6,16c0-0.1,0.1-0.2,0.2-0.3
		c0.1-0.1,2.3-1.7,6.2-1.7c2.3,0,4.7,0.6,7.1,1.7c2.3,1.1,4.6,1.6,6.8,1.6c3.6,0,5.7-1.5,5.7-1.6c0.1-0.1,0.3-0.1,0.5-0.1
		c0.1,0.1,0.2,0.2,0.2,0.4v18.6c0,0.1-0.1,0.2-0.2,0.3c-0.1,0.1-2.3,1.7-6.3,1.7c-2.3,0-4.7-0.6-7.1-1.7c-2.4-1.1-4.6-1.6-6.8-1.6
		c-1.7,0-3,0.3-3.9,0.7l0,14.6c0,0,0,0.1,0,0.1C883.1,48.9,882.9,49.1,882.7,49.1"/>
	<path class="st4" d="M880.7,48.3h0.7l0-14.5c0-0.2,0.1-0.3,0.3-0.4c0.9-0.4,2.4-0.8,4.5-0.8c2.3,0,4.7,0.6,7.2,1.7
		c2.3,1.1,4.6,1.6,6.8,1.6c3,0,5-1.1,5.5-1.5V16.7c-1,0.5-2.8,1.3-5.5,1.3c-2.3,0-4.7-0.6-7.1-1.7c-2.3-1.1-4.6-1.6-6.7-1.6
		c-3,0-5,1.1-5.5,1.5L880.7,48.3z"/>
	<path class="st2" d="M886.6,30.8c2.7,0,5.5,0.6,8.1,1.9c2,1,4.1,1.5,6.1,1.5c2.2,0,3.7-0.6,4.2-0.8V19.1c-0.8,0.3-2.2,0.6-4.1,0.6
		c-2.6,0-5.3-0.6-8-1.9c-2.2-1-4.2-1.5-6.2-1.5c-2.1,0-3.4,0.6-3.9,0.8v14.1C883.5,31.1,884.9,30.8,886.6,30.8"/>
</g>
<g>
	<path class="st4" d="M824.6,49.1C824.6,49.1,824.5,49.1,824.6,49.1H823c-0.2,0-0.4-0.2-0.4-0.4L822.5,16c0-0.1,0.1-0.2,0.2-0.3
		c0.1-0.1,2.3-1.7,6.2-1.7c2.3,0,4.7,0.6,7.1,1.7c2.3,1.1,4.6,1.6,6.8,1.6c3.6,0,5.7-1.5,5.7-1.6c0.1-0.1,0.3-0.1,0.5-0.1
		c0.2,0.1,0.2,0.2,0.2,0.4v18.6c0,0.1-0.1,0.2-0.2,0.3c-0.1,0.1-2.3,1.7-6.3,1.7c-2.3,0-4.7-0.6-7.1-1.7c-2.4-1.1-4.7-1.6-6.8-1.6
		c-1.7,0-3,0.3-3.9,0.6l0,14.6c0,0,0,0.1,0,0.1C825,48.9,824.8,49.1,824.6,49.1"/>
	<path class="st4" d="M822.6,48.3h0.7l0-14.5c0-0.2,0.1-0.3,0.3-0.4c0.9-0.4,2.4-0.8,4.5-0.8c2.3,0,4.7,0.6,7.2,1.7
		c2.3,1.1,4.6,1.6,6.8,1.6c3,0,5-1.1,5.5-1.5V16.7c-1,0.5-2.8,1.3-5.5,1.3c-2.3,0-4.7-0.6-7.1-1.7c-2.3-1.1-4.6-1.6-6.7-1.6
		c-3,0-5,1.1-5.5,1.5L822.6,48.3z"/>
	<path class="st3" d="M828.5,30.8c2.7,0,5.5,0.6,8.1,1.9c2,1,4.1,1.5,6.1,1.5c2.2,0,3.7-0.6,4.2-0.8V19.1c-0.8,0.3-2.2,0.6-4.1,0.6
		c-2.6,0-5.3-0.6-8-1.9c-2.2-1-4.2-1.5-6.2-1.5c-2.1,0-3.4,0.6-3.9,0.8v14.1C825.4,31.1,826.8,30.8,828.5,30.8"/>
</g>
<path class="st5" d="M1023.3,25.8c-0.4-0.5-0.8-0.9-1.2-1.4c-0.6-5.9-5.8-10.5-12-10.5c-6.2,0-11.3,4.6-12,10.5
	c-0.4,0.4-0.8,0.9-1.2,1.4c-0.3,0.4-0.3,1,0,1.4c2.1,2.5,4.8,4.3,7.8,5.3c0.1,0.1,0.1,0.1,0.2,0.2c0.6,0.5,1,1.2,1,2s-0.4,1.5-1,2
	c0,0,0,0,0,0c0,0,0,0,0,0c-1.2,0.9-1.9,2.3-1.9,3.7s0.7,2.8,1.9,3.7c0,0,0,0,0,0c0,0,0,0,0,0c0.6,0.5,1,1.2,1,2c0,0.8-0.4,1.5-1,2
	c-0.5,0.4-0.6,1.1-0.2,1.6c0.2,0.3,0.6,0.4,0.9,0.4c0.2,0,0.5-0.1,0.7-0.2c1.2-0.9,1.9-2.3,1.9-3.8c0-1.5-0.7-2.8-1.9-3.7
	c0,0,0,0,0,0c-0.6-0.5-1-1.2-1-2c0-0.8,0.4-1.5,1-2c0,0,0,0,0,0c1.2-0.9,1.9-2.3,1.9-3.8c0-0.5-0.1-1-0.2-1.4c0.7,0.1,1.3,0.1,2,0.1
	c0.3,0.4,0.4,0.8,0.4,1.3c0,0.8-0.4,1.5-1,2c0,0,0,0,0,0c0,0,0,0,0,0c-1.2,0.9-1.9,2.3-1.9,3.7s0.7,2.8,1.9,3.7c0,0,0,0,0,0
	c0,0,0,0,0,0c0.6,0.5,1,1.2,1,2c0,0.8-0.4,1.5-1,2c-0.5,0.4-0.6,1.1-0.2,1.6c0.2,0.3,0.6,0.4,0.9,0.4c0.2,0,0.5-0.1,0.7-0.2
	c1.2-0.9,1.9-2.3,1.9-3.8c0-1.5-0.7-2.8-1.9-3.7c0,0,0,0,0,0c-0.6-0.5-1-1.2-1-2c0-0.8,0.4-1.5,1-2c0,0,0,0,0,0
	c1.2-0.9,1.9-2.3,1.9-3.8c0,0,0-0.1,0-0.1c0-0.5-0.1-0.9-0.2-1.3c0.6-0.1,1.1-0.2,1.6-0.3c0.5,0.5,0.8,1.1,0.8,1.8
	c0,0.8-0.4,1.5-1,2c0,0,0,0,0,0c0,0,0,0,0,0c-1.2,0.9-1.9,2.3-1.9,3.7c0,1.5,0.7,2.8,1.9,3.7c0,0,0,0,0,0c0,0,0,0,0,0
	c0.6,0.5,1,1.2,1,2c0,0.8-0.4,1.5-1,2c-0.5,0.4-0.6,1.1-0.2,1.6c0.2,0.3,0.6,0.4,0.9,0.4c0.2,0,0.5-0.1,0.7-0.2
	c1.2-0.9,1.9-2.3,1.9-3.8c0-1.5-0.7-2.8-1.9-3.7c0,0,0,0,0,0c-0.6-0.5-1-1.2-1-2c0-0.8,0.3-1.5,1-2c0,0,0,0,0,0
	c1.2-0.9,1.9-2.3,1.9-3.8c0-0.9-0.3-1.8-0.8-2.5c2.7-1,5-2.7,6.9-5C1023.6,26.8,1023.6,26.2,1023.3,25.8 M1010.1,16.2
	c4.7,0,8.7,3.3,9.6,7.6c-2.6,2.3-6,3.5-9.6,3.5s-6.9-1.3-9.6-3.5C1001.5,19.4,1005.5,16.2,1010.1,16.2 M1010.1,31.1
	c-4.1,0-8-1.7-10.8-4.7c0.1-0.1,0.3-0.3,0.4-0.4c0.1,0.1,0.1,0.1,0.2,0.1c0.1,0.1,0.2,0.1,0.3,0.2c0.1,0.1,0.2,0.2,0.4,0.2
	c0.1,0.1,0.2,0.1,0.3,0.2c0.1,0.1,0.3,0.2,0.4,0.2c0.1,0,0.2,0.1,0.2,0.1c0.1,0.1,0.3,0.2,0.4,0.3c0.1,0,0.1,0.1,0.2,0.1
	c0.2,0.1,0.4,0.2,0.6,0.3c0.1,0,0.1,0,0.2,0.1c0.2,0.1,0.3,0.2,0.5,0.2c0.1,0,0.2,0.1,0.3,0.1c0.1,0.1,0.3,0.1,0.4,0.2
	c0.1,0,0.2,0.1,0.3,0.1c0.1,0,0.3,0.1,0.4,0.1c0.1,0,0.2,0.1,0.3,0.1c0.1,0,0.3,0.1,0.4,0.1c0.1,0,0.2,0.1,0.3,0.1
	c0.1,0,0.3,0.1,0.4,0.1c0.1,0,0.2,0,0.3,0.1c0.1,0,0.3,0.1,0.4,0.1c0.1,0,0.2,0,0.3,0.1c0.1,0,0.3,0,0.4,0.1c0.1,0,0.2,0,0.3,0
	c0.1,0,0.3,0,0.4,0c0.1,0,0.2,0,0.3,0c0.2,0,0.3,0,0.5,0c0.1,0,0.2,0,0.2,0c0.2,0,0.5,0,0.7,0c0.2,0,0.5,0,0.7,0c0.1,0,0.2,0,0.2,0
	c0.2,0,0.3,0,0.5,0c0.1,0,0.2,0,0.3,0c0.1,0,0.3,0,0.4,0c0.1,0,0.2,0,0.3,0c0.1,0,0.3,0,0.4-0.1c0.1,0,0.2,0,0.3-0.1
	c0.1,0,0.3-0.1,0.4-0.1c0.1,0,0.2,0,0.3-0.1c0.1,0,0.3-0.1,0.4-0.1c0.1,0,0.2-0.1,0.3-0.1c0.1,0,0.3-0.1,0.4-0.1
	c0.1,0,0.2-0.1,0.3-0.1c0.1,0,0.3-0.1,0.4-0.1c0.1,0,0.2-0.1,0.3-0.1c0.1-0.1,0.3-0.1,0.4-0.2c0.1,0,0.2-0.1,0.3-0.1
	c0.2-0.1,0.3-0.1,0.5-0.2c0.1,0,0.1,0,0.2-0.1c0.2-0.1,0.4-0.2,0.6-0.3c0.1,0,0.1-0.1,0.2-0.1c0.2-0.1,0.3-0.2,0.4-0.3
	c0.1,0,0.2-0.1,0.2-0.1c0.1-0.1,0.3-0.2,0.4-0.2c0.1-0.1,0.2-0.1,0.3-0.2c0.1-0.1,0.2-0.2,0.4-0.2c0.1-0.1,0.2-0.1,0.3-0.2
	c0.1,0,0.1-0.1,0.2-0.1c0.1,0.1,0.3,0.3,0.4,0.4C1018.2,29.4,1014.3,31.1,1010.1,31.1"/>
<path d="M1435.9,25.5c-0.4-0.6-0.9-1.1-1.5-1.6c-0.8-6.9-7.1-12.2-14.7-12.2c-7.5,0-13.9,5.3-14.7,12.2c-0.5,0.5-1,1-1.5,1.6
	c-0.4,0.5-0.4,1.1,0,1.6c2.5,2.9,5.8,5.1,9.5,6.2c0.1,0.1,0.2,0.2,0.3,0.2c0.8,0.5,1.2,1.4,1.2,2.3c0,0.9-0.4,1.7-1.2,2.3
	c0,0,0,0,0,0c0,0,0,0,0,0c-1.4,1.1-2.3,2.7-2.3,4.4c0,1.7,0.8,3.3,2.3,4.4c0,0,0,0,0,0c0,0,0,0,0,0c0.8,0.5,1.2,1.4,1.2,2.3
	c0,0.9-0.4,1.7-1.2,2.3c-0.6,0.4-0.7,1.2-0.3,1.8c0.3,0.3,0.7,0.5,1.1,0.5c0.3,0,0.6-0.1,0.8-0.3c1.5-1,2.4-2.7,2.4-4.4
	c0-1.7-0.9-3.3-2.3-4.3c0,0,0,0,0,0c-0.8-0.6-1.2-1.4-1.2-2.3c0-0.9,0.4-1.7,1.2-2.3c0,0,0,0,0,0c1.5-1,2.4-2.7,2.4-4.4
	c0-0.6-0.1-1.1-0.3-1.7c0.8,0.1,1.6,0.1,2.4,0.2c0.3,0.5,0.5,1,0.5,1.5c0,0.9-0.4,1.7-1.2,2.3c0,0,0,0,0,0c0,0,0,0,0,0
	c-1.4,1.1-2.3,2.7-2.3,4.4c0,1.7,0.8,3.3,2.3,4.4c0,0,0,0,0,0c0,0,0,0,0,0c0.8,0.5,1.2,1.4,1.2,2.3c0,0.9-0.4,1.7-1.2,2.3
	c-0.6,0.4-0.7,1.2-0.3,1.8c0.3,0.3,0.7,0.5,1.1,0.5c0.3,0,0.6-0.1,0.8-0.3c1.5-1,2.4-2.7,2.4-4.4c0-1.7-0.9-3.3-2.3-4.3c0,0,0,0,0,0
	c-0.8-0.6-1.2-1.4-1.2-2.3c0-0.9,0.4-1.7,1.2-2.3c0,0,0,0,0,0c1.5-1,2.4-2.7,2.4-4.4c0,0,0-0.1,0-0.1c0-0.5-0.1-1.1-0.3-1.6
	c0.7-0.1,1.3-0.2,2-0.4c0.6,0.5,0.9,1.3,0.9,2.1c0,0.9-0.4,1.7-1.2,2.3c0,0,0,0,0,0c0,0,0,0,0,0c-1.4,1.1-2.3,2.7-2.3,4.4
	c0,1.7,0.8,3.3,2.3,4.4c0,0,0,0,0,0c0,0,0,0,0,0c0.8,0.5,1.2,1.4,1.2,2.3c0,0.9-0.4,1.7-1.2,2.3c-0.6,0.4-0.7,1.2-0.3,1.8
	c0.3,0.3,0.7,0.5,1.1,0.5c0.3,0,0.6-0.1,0.8-0.3c1.5-1,2.4-2.7,2.4-4.4c0-1.7-0.9-3.3-2.3-4.4c0,0,0,0,0,0c-0.8-0.6-1.2-1.4-1.2-2.3
	c0-0.9,0.4-1.7,1.2-2.3c0,0,0,0,0,0c1.5-1,2.4-2.7,2.4-4.4c0-1-0.3-2.1-0.9-2.9c3.2-1.2,6.1-3.2,8.4-5.8
	C1436.3,26.6,1436.3,26,1435.9,25.5 M1419.8,14.3c5.7,0,10.6,3.8,11.7,8.9c-3.2,2.6-7.4,4.1-11.7,4.1s-8.5-1.5-11.7-4.1
	C1409.2,18.1,1414.1,14.3,1419.8,14.3 M1419.8,31.7c-5.1,0-9.8-2-13.2-5.5c0.2-0.2,0.3-0.3,0.5-0.5c0.1,0.1,0.2,0.1,0.2,0.2
	c0.1,0.1,0.2,0.1,0.3,0.2c0.1,0.1,0.3,0.2,0.4,0.3c0.1,0.1,0.2,0.1,0.3,0.2c0.2,0.1,0.3,0.2,0.5,0.3c0.1,0.1,0.2,0.1,0.3,0.2
	c0.2,0.1,0.4,0.2,0.5,0.3c0.1,0,0.2,0.1,0.2,0.1c0.3,0.1,0.5,0.3,0.8,0.4c0.1,0,0.1,0.1,0.2,0.1c0.2,0.1,0.4,0.2,0.6,0.3
	c0.1,0,0.2,0.1,0.3,0.1c0.2,0.1,0.3,0.1,0.5,0.2c0.1,0,0.2,0.1,0.3,0.1c0.2,0.1,0.3,0.1,0.5,0.2c0.1,0,0.2,0.1,0.4,0.1
	c0.2,0,0.3,0.1,0.5,0.1c0.1,0,0.3,0.1,0.4,0.1c0.2,0,0.3,0.1,0.5,0.1c0.1,0,0.3,0.1,0.4,0.1c0.2,0,0.3,0.1,0.5,0.1
	c0.1,0,0.3,0,0.4,0.1c0.2,0,0.3,0.1,0.5,0.1c0.1,0,0.3,0,0.4,0.1c0.2,0,0.4,0,0.5,0.1c0.1,0,0.2,0,0.4,0c0.2,0,0.4,0,0.6,0
	c0.1,0,0.2,0,0.3,0c0.3,0,0.6,0,0.9,0c0.3,0,0.6,0,0.9,0c0.1,0,0.2,0,0.3,0c0.2,0,0.4,0,0.6,0c0.1,0,0.2,0,0.4,0
	c0.2,0,0.4,0,0.5-0.1c0.1,0,0.3,0,0.4-0.1c0.2,0,0.3,0,0.5-0.1c0.1,0,0.3,0,0.4-0.1c0.2,0,0.3-0.1,0.5-0.1c0.1,0,0.3-0.1,0.4-0.1
	c0.2,0,0.3-0.1,0.5-0.1c0.1,0,0.3-0.1,0.4-0.1c0.2,0,0.3-0.1,0.5-0.1c0.1,0,0.2-0.1,0.4-0.1c0.2-0.1,0.3-0.1,0.5-0.2
	c0.1,0,0.2-0.1,0.3-0.1c0.2-0.1,0.3-0.1,0.5-0.2c0.1,0,0.2-0.1,0.3-0.1c0.2-0.1,0.4-0.2,0.6-0.3c0.1,0,0.1-0.1,0.2-0.1
	c0.3-0.1,0.5-0.2,0.8-0.4c0.1,0,0.2-0.1,0.2-0.1c0.2-0.1,0.4-0.2,0.5-0.3c0.1-0.1,0.2-0.1,0.3-0.2c0.2-0.1,0.3-0.2,0.5-0.3
	c0.1-0.1,0.2-0.1,0.3-0.2c0.1-0.1,0.3-0.2,0.4-0.3c0.1-0.1,0.2-0.1,0.3-0.2c0.1-0.1,0.2-0.1,0.3-0.2c0.2,0.2,0.3,0.3,0.5,0.5
	C1429.6,29.7,1424.9,31.7,1419.8,31.7"/>
<g>
	<path d="M1252.4,16.7c2.7,0,4.8-2.1,4.8-4.6c0-2.5-2.2-4.6-4.8-4.6c-2.7,0-4.8,2.1-4.8,4.6C1247.5,14.7,1249.7,16.7,1252.4,16.7
		L1252.4,16.7z"/>
	<g>
		<g>
			<defs>
				<rect id="SVGID_1_" x="1234.7" y="7.5" width="39.5" height="46.8"/>
			</defs>
			<clipPath id="SVGID_2_">
				<use xlink:href="#SVGID_1_"  style="overflow:visible;"/>
			</clipPath>
			<path class="st6" d="M1259.8,42.8c-1.3,4.3-5.4,7.4-10.2,7.4c-5.9,0-10.7-4.6-10.7-10.2c0-4.2,2.6-7.7,6.4-9.3v-4.3
				c-6.1,1.8-10.6,7.2-10.6,13.6c0,7.9,6.7,14.3,14.9,14.3c6,0,11.2-3.4,13.5-8.3l-1.7-3.2C1260.9,42.8,1260.4,42.8,1259.8,42.8
				L1259.8,42.8z"/>
		</g>
		<g>
			<defs>
				<rect id="SVGID_3_" x="1234.7" y="7.5" width="39.5" height="46.8"/>
			</defs>
			<clipPath id="SVGID_4_">
				<use xlink:href="#SVGID_3_"  style="overflow:visible;"/>
			</clipPath>
			<path class="st7" d="M1273.9,48.3l-6.5-12.1c-0.5-0.9-1.5-1.5-2.5-1.5h-8.3v-1.8h7.1c0.7,0,1.3-0.4,1.7-0.9
				c0.3-0.3,0.4-0.7,0.4-1.2c0-1.1-0.9-2-2.1-2h-7.1v-6.1c0-1.7-1.3-4.1-4.2-4.1c-2.3,0-4.2,1.8-4.2,4.1V36c0,2.3,1.9,4.1,4.3,4.1
				h10.7l5.7,10.7c0.5,0.9,1.5,1.5,2.5,1.5c0.4,0,0.9-0.1,1.3-0.3C1274,51.3,1274.6,49.6,1273.9,48.3L1273.9,48.3z"/>
		</g>
	</g>
</g>
<g>
	<g>
		<path d="M1112.8,36.8h-34.6c-1.5,0-3-1-3.7-2.3l-8.4-16.1c-1-1.8-3.2-2.5-4.9-1.6c-1.8,1-2.5,3.2-1.6,4.9l8.4,16.1
			c1.2,2.5,3.3,4.3,5.8,5.4l-4.2,3.6c-1.2,1.1-1.5,3.1-0.4,4.3c0.6,0.7,1.5,1.1,2.3,1.1c0.7,0,1.5-0.2,2-0.7l8.5-7.3h19.3l8.5,7.3
			c0.6,0.5,1.4,0.7,2,0.7c0.9,0,1.7-0.4,2.3-1.1c1.1-1.2,1-3.2-0.4-4.3l-3-2.6h2c2.1,0,3.7-1.6,3.7-3.7S1114.9,36.8,1112.8,36.8
			L1112.8,36.8z"/>
	</g>
	<path d="M1076,34c0.4,0.7,1.2,1.5,2.2,1.5h31.4c1.4,0,2.5-1.1,2.5-2.5c0-1.4-1.1-2.6-2.5-2.6l-29.9-0.1l-5.2-9.5
		c-0.6-1.2-2.1-1.6-3.3-1c-1.2,0.6-1.6,2.1-1,3.3L1076,34z"/>
</g>
<g>
	<path d="M1160.6,39.6v4.8c0,5,4.1,9.1,9.1,9.1h6.1c1.7,0,3-1.4,3-3c0-1.7-1.4-3-3-3h-6.1c-1.7,0-3-1.3-3-3v-4.4
		c-0.7,0.1-1.4,0.2-2.1,0.2C1163.2,40.3,1161.9,40.1,1160.6,39.6L1160.6,39.6z"/>
	<path d="M1166.7,15.1V10c0-1.7-1.4-3-3-3c-1.7,0-3,1.4-3,3v5.8c1.3-0.4,2.6-0.7,4-0.7L1166.7,15.1z"/>
	<path d="M1188.9,18.1l-24.2,0c-5.1,0-9.6,4.3-9.6,9.5c0,5.3,4.2,9.5,9.5,9.5c3.1,0,5.8-1.5,7.6-3.8c1-1.4,2.7-2.2,4.4-2.2h0
		c1.9,0,3.6,0.9,4.8,2.3c1.7,2.2,4.5,3.7,7.5,3.7c5.3,0,9.6-4.3,9.6-9.6C1198.4,22.4,1194.2,18.1,1188.9,18.1L1188.9,18.1z"/>
</g>
<g>
	<path d="M1363.4,50.3l-0.1-2c-0.1-1.6-1.5-3-3.1-3h-14.2c-0.1,0.9-0.9,1.6-1.8,1.6h-5.7c-1,0-1.7-0.7-1.8-1.6h-14.2
		c-1.7,0-3,1.3-3.1,3l0,2c0,0.6,0.2,1.2,0.6,1.7c0.4,0.4,1.1,0.7,1.7,0.7h39.5c0.6,0,1.3-0.3,1.7-0.7
		C1363.1,51.6,1363.5,50.9,1363.4,50.3z"/>
</g>
<g>
	<path d="M1338.5,39.5h5.7c1,0,1.7,0.7,1.8,1.7h14c1.7,0,2.9-1.3,2.8-3l-0.1-2.5c-0.1-1.6-1.5-3-3.2-3H1346
		c-0.1,0.9-0.9,1.6-1.8,1.6h-5.7c-1,0-1.7-0.7-1.8-1.6h-13.7c-1.7,0-3.1,1.3-3.2,3l-0.1,2.5c-0.1,1.6,1.2,3,2.8,3h14
		C1336.6,40.2,1337.5,39.5,1338.5,39.5z"/>
</g>
</svg>
