<?xml version="1.0" encoding="utf-8"?>
<!-- Generator: Adobe Illustrator 19.2.0, SVG Export Plug-In . SVG Version: 6.00 Build 0)  -->
<svg version="1.1" id="Layer_1" xmlns="http://www.w3.org/2000/svg" xmlns:xlink="http://www.w3.org/1999/xlink" x="0px" y="0px"
	 viewBox="0 0 358.7 41.7" style="enable-background:new 0 0 358.7 41.7;" xml:space="preserve">
<style type="text/css">
	.st0{fill:#FFFFFF;}
	.st1{fill:none;stroke:#FFFFFF;stroke-miterlimit:10;}
	.st2{fill:none;stroke:#FFFFFF;stroke-linecap:round;stroke-linejoin:round;stroke-miterlimit:10;}
</style>
<g>
	<g>
		<path class="st0" d="M274.3,22.8l-2.2-1.1c-0.2-0.1-0.4-0.1-0.6,0l-2.4,1.2l-1-0.7l3.1-4.3l3.6,4.4L274.3,22.8L274.3,22.8z
			 M274.1,13.8l0.2,0.2h-2.5v-1.4h2.5l-0.2,0.2C273.8,13.1,273.8,13.5,274.1,13.8L274.1,13.8z M257.8,24.3l-1-0.5
			c-0.2-0.1-0.4-0.1-0.6,0l-0.8,0.4l-0.2-0.4l1.2-1.7l1.6,2L257.8,24.3L257.8,24.3z M282.8,30.3l-11-13.7v-1.1h4.2h0
			c0.4,0,0.7-0.3,0.7-0.7c0-0.2-0.1-0.4-0.2-0.5l-0.9-0.9l0.9-0.9c0.2-0.2,0.3-0.5,0.1-0.8c-0.1-0.3-0.4-0.4-0.6-0.4h-4.9
			c-0.4,0-0.7,0.3-0.7,0.7v2.8v1.9l-7.9,10.9l-5.5-6.9c-0.1-0.2-0.3-0.3-0.6-0.3s-0.4,0.1-0.5,0.3l-6.2,8.5c-0.2,0.3-0.2,0.7,0.2,1
			c0.1,0.1,0.3,0.1,0.4,0.1c0.2,0,0.4-0.1,0.6-0.3l3.5-4.8l0.2,0.4c0.1,0.2,0.2,0.3,0.4,0.4c0.2,0.1,0.4,0,0.5,0l1.1-0.5l1.1,0.5
			c0.1,0,0.2,0.1,0.3,0.1c0.2,0,0.3-0.1,0.4-0.2l0.6-0.5l2.8,3.4l-5.8,7.9c-0.2,0.3-0.2,0.7,0.2,1c0.1,0.1,0.3,0.1,0.4,0.1
			c0.2,0,0.4-0.1,0.6-0.3l10.2-14.1l1.4,1c0.2,0.2,0.5,0.2,0.7,0.1l2.5-1.2l2.5,1.2c0.1,0,0.2,0.1,0.3,0.1c0.2,0,0.4-0.1,0.6-0.3
			l0.4-0.6l6.1,7.6c0.2,0.3,0.7,0.3,1,0.1C283,31,283,30.6,282.8,30.3L282.8,30.3z"/>
	</g>
	<path class="st0" d="M255.8,11.9c-0.8,0-1.4-0.6-1.4-1.4s0.6-1.4,1.4-1.4c0.8,0,1.4,0.6,1.4,1.4S256.5,11.9,255.8,11.9L255.8,11.9z
		 M258.6,10.5c0-1.5-1.2-2.8-2.8-2.8c-1.5,0-2.8,1.2-2.8,2.8c0,1.5,1.2,2.8,2.8,2.8C257.3,13.3,258.6,12,258.6,10.5L258.6,10.5z"/>
	<path class="st0" d="M255.8,7c0.4,0,0.7-0.3,0.7-0.7V4.9c0-0.4-0.3-0.7-0.7-0.7c-0.4,0-0.7,0.3-0.7,0.7v1.4
		C255.1,6.7,255.4,7,255.8,7L255.8,7z"/>
	<path class="st0" d="M255.1,14.7v1.4c0,0.4,0.3,0.7,0.7,0.7c0.4,0,0.7-0.3,0.7-0.7v-1.4c0-0.4-0.3-0.7-0.7-0.7
		C255.4,14,255.1,14.3,255.1,14.7L255.1,14.7z"/>
	<path class="st0" d="M253.1,7.2c0.1,0.2,0.4,0.3,0.6,0.3c0.1,0,0.2,0,0.3-0.1c0.3-0.2,0.4-0.6,0.3-1l-0.7-1.2
		c-0.2-0.3-0.6-0.4-0.9-0.3c-0.3,0.2-0.4,0.6-0.3,0.9L253.1,7.2L253.1,7.2z"/>
	<path class="st0" d="M258,15.7c0.1,0.2,0.4,0.3,0.6,0.3c0.1,0,0.2,0,0.3-0.1c0.3-0.2,0.4-0.6,0.3-1l-0.7-1.2
		c-0.2-0.3-0.6-0.4-1-0.3c-0.3,0.2-0.4,0.6-0.3,0.9L258,15.7L258,15.7z"/>
	<path class="st0" d="M250.6,8.3l1.2,0.7c0.1,0.1,0.2,0.1,0.3,0.1c0.2,0,0.5-0.1,0.6-0.3c0.2-0.3,0.1-0.8-0.3-1l-1.2-0.7
		c-0.3-0.2-0.8-0.1-0.9,0.3C250.2,7.7,250.3,8.1,250.6,8.3L250.6,8.3z"/>
	<path class="st0" d="M260.6,14c0.2,0,0.5-0.1,0.6-0.3c0.2-0.3,0.1-0.8-0.3-1l-1.2-0.7c-0.3-0.2-0.8-0.1-0.9,0.3
		c-0.2,0.3-0.1,0.8,0.3,1l1.2,0.7C260.4,14,260.5,14,260.6,14L260.6,14z"/>
	<path class="st0" d="M250.2,11.2h1.4c0.4,0,0.7-0.3,0.7-0.7c0-0.4-0.3-0.7-0.7-0.7h-1.4c-0.4,0-0.7,0.3-0.7,0.7
		C249.5,10.9,249.8,11.2,250.2,11.2L250.2,11.2z"/>
	<path class="st0" d="M260,9.8c-0.4,0-0.7,0.3-0.7,0.7c0,0.4,0.3,0.7,0.7,0.7h1.4l0,0c0.4,0,0.7-0.3,0.7-0.7c0-0.4-0.3-0.7-0.7-0.7
		L260,9.8L260,9.8L260,9.8L260,9.8z"/>
	<path class="st0" d="M252.8,12.2c-0.2-0.3-0.6-0.4-0.9-0.3l-1.2,0.7c-0.3,0.2-0.4,0.6-0.3,1c0.1,0.2,0.4,0.3,0.6,0.3
		c0.1,0,0.2,0,0.3-0.1l1.2-0.7C252.8,13,253,12.6,252.8,12.2L252.8,12.2z"/>
	<path class="st0" d="M258.8,8.8c0.1,0.2,0.4,0.3,0.6,0.3c0.1,0,0.2,0,0.3-0.1l1.2-0.7c0.3-0.2,0.4-0.6,0.3-1
		c-0.2-0.3-0.6-0.4-0.9-0.3L259,7.8C258.7,8,258.6,8.4,258.8,8.8L258.8,8.8z"/>
	<path class="st0" d="M252.6,15.9c0.1,0.1,0.2,0.1,0.3,0.1c0.2,0,0.5-0.1,0.6-0.3l0.7-1.2c0.2-0.3,0.1-0.8-0.3-0.9
		c-0.3-0.2-0.8-0.1-1,0.3l-0.7,1.2C252.2,15.3,252.3,15.7,252.6,15.9L252.6,15.9z"/>
	<path class="st0" d="M257.5,7.5c0.1,0.1,0.2,0.1,0.3,0.1c0.2,0,0.5-0.1,0.6-0.3l0.7-1.2c0.2-0.3,0.1-0.8-0.3-0.9
		c-0.3-0.2-0.8-0.1-1,0.3l-0.7,1.2C257.1,6.9,257.2,7.3,257.5,7.5L257.5,7.5z"/>
</g>
<g>
	<path class="st0" d="M21.8,14.8v-1.4h5.5h1.4V12V10h15.8v3.4v1.4L21.8,14.8L21.8,14.8z M44.4,31.9H14.3v-0.7h30.1L44.4,31.9
		L44.4,31.9z M33.5,29.9c-1.8,0-3.6-0.7-4.8-2c-1.3-1.3-2-3-2-4.8c0-1.8,0.7-3.6,2-4.8c1.3-1.3,3-2,4.8-2c1.8,0,3.6,0.7,4.8,2
		c1.3,1.3,2,3,2,4.8c0,1.8-0.7,3.6-2,4.8C37,29.1,35.3,29.9,33.5,29.9L33.5,29.9z M44.4,17.5v12.3H38c2.2-1.5,3.7-4,3.7-6.9
		s-1.5-5.4-3.7-6.9h6.4V17.5L44.4,17.5L44.4,17.5z M23.9,16.8c0,0.4,0.3,0.7,0.7,0.7c0.4,0,0.7-0.3,0.7-0.7v-0.7h3.7
		c-2.2,1.5-3.7,4-3.7,6.9s1.5,5.4,3.7,6.9H14.3V17.5v-1.4h9.6V16.8L23.9,16.8L23.9,16.8z M14.3,13.4h6.2v1.4h-6.2V13.4L14.3,13.4z
		 M17.7,10.7V12H15v-1.4H17.7L17.7,10.7z M21.1,10.7h4.1V12h-4.1V10.7L21.1,10.7z M44.4,8.6H28.7c-0.8,0-1.4,0.6-1.4,1.4V12h-0.7V10
		c0-0.4-0.3-0.7-0.7-0.7h-5.5c-0.4,0-0.7,0.3-0.7,0.7V12h-0.7V10c0-0.4-0.3-0.7-0.7-0.7h-4.1c-0.4,0-0.7,0.3-0.7,0.7v2.2
		c-0.4,0.2-0.7,0.7-0.7,1.2v1.4v3.4v7.5v5.5v0.7c0,0.8,0.6,1.4,1.4,1.4h30.1c0.8,0,1.4-0.6,1.4-1.4v-0.7v-5.5v-7.5v-3.4v-1.4V10
		C45.8,9.2,45.2,8.6,44.4,8.6L44.4,8.6z"/>
	<path class="st0" d="M34.2,11.7h-4.1c-0.4,0-0.7,0.3-0.7,0.7c0,0.4,0.3,0.7,0.7,0.7h4.1c0.4,0,0.7-0.3,0.7-0.7
		C34.9,12,34.5,11.7,34.2,11.7L34.2,11.7z"/>
	<path class="st0" d="M36.2,10.7c-0.4,0-0.7,0.3-0.7,0.7v2.1c0,0.4,0.3,0.7,0.7,0.7c0.4,0,0.7-0.3,0.7-0.7v-2.1
		C36.9,11,36.6,10.7,36.2,10.7L36.2,10.7z"/>
	<path class="st0" d="M39,12h3.4v0.7H39V12L39,12z M37.6,14.1h6.2v-3.4h-6.2V14.1L37.6,14.1z"/>
	<path class="st0" d="M33.5,17.6L33.5,17.6L33.5,17.6c-3,0-5.4,2.4-5.4,5.4l0,0l0,0c0,0.4,0.3,0.7,0.7,0.7s0.7-0.3,0.7-0.7l0,0l0,0
		c0-2.2,1.8-4.1,4.1-4.1l0,0l0,0c0.4,0,0.7-0.3,0.7-0.7S33.9,17.6,33.5,17.6L33.5,17.6z"/>
</g>
<g>
	<g>
		<path class="st0" d="M96.4,31.3l-1.1-2.2c0.8,0.1,1.7,0.2,2.6,0.3L96.4,31.3L96.4,31.3z M90.5,30.5l-0.9-2.3
			c0.8,0.2,1.6,0.3,2.5,0.4L90.5,30.5L90.5,30.5z M84.7,29.3l-0.8-2.4c0.8,0.2,1.7,0.4,2.6,0.6L84.7,29.3L84.7,29.3z M78.9,27.7
			l-0.6-2.4c0.7,0.2,1.5,0.5,2.5,0.8L78.9,27.7L78.9,27.7z M101.9,28.6L101.9,28.6c-8.2-0.5-14.9-2-19.1-3.1
			c-4.6-1.3-7.2-2.4-7.3-2.4l0,0v0c-0.1,0-0.2-0.1-0.2-0.1c-0.3,0-0.6,0.3-0.6,0.6c0,0.2,0.1,0.4,0.3,0.5v0c0.1,0,0.7,0.3,2,0.8
			l1.2,4.9l3.9-3.3c0.1,0,0.2,0.1,0.3,0.1c0,0,0.1,0,0.1,0l1.7,4.9l3.6-3.6c0.1,0,0.3,0.1,0.4,0.1l1.9,4.7l3.3-3.8
			c0.2,0,0.3,0,0.5,0.1l2.2,4.6l3.1-4c0.8,0.1,1.7,0.1,2.6,0.2v0c0,0,0,0,0,0c0.3,0,0.6-0.3,0.6-0.6
			C102.4,28.8,102.2,28.6,101.9,28.6L101.9,28.6z"/>
	</g>
	<path class="st0" d="M87,16.5l-0.7,2.3l-1.8-1.6c0.4-0.1,0.8-0.2,1.3-0.3C86.2,16.8,86.6,16.6,87,16.5L87,16.5z M97.8,14.6
		l-2.2-1.4c0.9-0.4,1.7-0.9,2.5-1.3L97.8,14.6L97.8,14.6z M92.2,17.1l-2-1.5c0.8-0.3,1.7-0.6,2.5-1L92.2,17.1L92.2,17.1z M80.5,20.2
		l-1.7-2c0.9-0.1,1.8-0.2,2.7-0.4L80.5,20.2L80.5,20.2z M75.3,18.5C75.3,18.5,75.3,18.5,75.3,18.5L75.3,18.5c0.7,0,1.5-0.1,2.2-0.1
		l3.4,4l2-4.8c0.1,0,0.2,0,0.4-0.1l3.7,3.4l1.4-4.8c0.2-0.1,0.3-0.1,0.5-0.2l4.1,3.1l0.9-5.1c0.2-0.1,0.3-0.1,0.5-0.2l0,0l4.4,2.8
		l0.5-5.4c1.8-1.1,2.9-1.8,2.9-1.9h0c0.1-0.1,0.2-0.3,0.2-0.4c0-0.3-0.3-0.6-0.6-0.6c-0.1,0-0.2,0-0.3,0.1l0,0c0,0-3,2.1-7.6,4.3
		c-4.3,2-11.1,4.4-18.6,4.6l0,0c-0.3,0-0.6,0.3-0.6,0.6C74.7,18.2,75,18.5,75.3,18.5L75.3,18.5z"/>
</g>
<g>
	<path class="st0" d="M218.3,32l-4.6-1.7V20.2c0-0.1,0.1-0.2,0.1-0.2c0.6-1.4,0.9-2.6,0.9-3.6l3.6,1.3L218.3,32L218.3,32z M207.5,32
		v-4c1.6-0.6,3.7-3.6,4.2-4.3c0.3-0.5,0.7-1,1-1.5v8.1L207.5,32L207.5,32z M201.4,30.3v-8.1c0.3,0.5,0.6,1,1,1.5
		c0.4,0.7,2.6,3.7,4.2,4.3v4L201.4,30.3L201.4,30.3z M195.7,32V17.7l3.6-1.3c0,1,0.3,2.2,0.9,3.6c0,0.1,0.1,0.2,0.1,0.2v10.1
		L195.7,32L195.7,32z M207,9.6c3.7,0,6.7,3,6.7,6.7c0,1.6-1.1,4.3-2.8,6.9c-0.8,1.1-1.6,2.1-2.3,2.9c-1,1-1.5,1.1-1.5,1.1
		c0,0-0.5,0-1.5-1.1c-0.7-0.7-1.6-1.8-2.3-2.9c-1.7-2.6-2.8-5.2-2.8-6.9C200.3,12.6,203.3,9.6,207,9.6L207,9.6z M219,16.9l-4.4-1.6
		c-0.2-1.7-1-3.2-2.2-4.4c-1.5-1.5-3.4-2.3-5.4-2.3c-2.1,0-4,0.8-5.4,2.3c-1.2,1.2-2,2.7-2.2,4.4l-4.4,1.6c-0.2,0.1-0.3,0.3-0.3,0.5
		v15.4c0,0.2,0.1,0.3,0.2,0.4c0.1,0.1,0.2,0.1,0.3,0.1c0.1,0,0.1,0,0.2,0l5.5-2l6,2c0,0,0,0,0,0c0.1,0,0.1,0,0.2,0l0,0l0,0
		c0.1,0,0.1,0,0.2,0l6-2l5.5,2c0.1,0,0.1,0,0.2,0c0.1,0,0.2,0,0.3-0.1c0.1-0.1,0.2-0.3,0.2-0.4V17.4C219.3,17.1,219.2,16.9,219,16.9
		L219,16.9z"/>
	<path class="st0" d="M207,13.8c1.4,0,2.6,1.2,2.6,2.6s-1.2,2.6-2.6,2.6s-2.6-1.2-2.6-2.6S205.6,13.8,207,13.8L207,13.8z M207,19.9
		c2,0,3.6-1.6,3.6-3.6s-1.6-3.6-3.6-3.6c-2,0-3.6,1.6-3.6,3.6C203.4,18.3,205,19.9,207,19.9L207,19.9z"/>
</g>
<g>
	<path class="st0" d="M157.4,32.2h-19.1v-1.6c0-0.9,0.7-1.6,1.6-1.6h15.9c0.9,0,1.6,0.7,1.6,1.6L157.4,32.2L157.4,32.2L157.4,32.2z
		 M147.8,22.2c-0.6,0-1.1-0.5-1.1-1.1s0.5-1.1,1.1-1.1s1.1,0.5,1.1,1.1S148.4,22.2,147.8,22.2L147.8,22.2z M147.8,14.2
		c3.8,0,6.9,3.1,6.9,6.9V28h-6.4v-4.8c0.9-0.2,1.6-1.1,1.6-2.1c0-1.2-1-2.1-2.1-2.1s-2.1,1-2.1,2.1c0,1,0.7,1.8,1.6,2.1V28h-6.4
		v-6.9C140.9,17.3,144,14.2,147.8,14.2L147.8,14.2z M155.8,28v-6.9c0-4.4-3.6-8-8-8s-8,3.6-8,8V28c-1.5,0-2.7,1.2-2.7,2.7v2.1
		c0,0.3,0.2,0.5,0.5,0.5h20.2c0.3,0,0.5-0.2,0.5-0.5v-2.1C158.4,29.2,157.2,28,155.8,28L155.8,28z"/>
	<path class="st0" d="M138.5,21.1c0-0.3-0.2-0.5-0.5-0.5h-2.4c-0.3,0-0.5,0.2-0.5,0.5c0,0.3,0.2,0.5,0.5,0.5h2.4
		C138.3,21.6,138.5,21.4,138.5,21.1L138.5,21.1z"/>
	<path class="st0" d="M142.4,12.8c0.1,0.2,0.3,0.3,0.5,0.3c0.1,0,0.2,0,0.3-0.1c0.3-0.1,0.3-0.5,0.2-0.7l-1.2-2.1
		c-0.1-0.3-0.5-0.3-0.7-0.2c-0.3,0.1-0.3,0.5-0.2,0.7L142.4,12.8L142.4,12.8z"/>
	<path class="st0" d="M147.8,11.8c0.3,0,0.5-0.2,0.5-0.5V8.3c0-0.3-0.2-0.5-0.5-0.5s-0.5,0.2-0.5,0.5v2.9
		C147.3,11.6,147.5,11.8,147.8,11.8L147.8,11.8z"/>
	<path class="st0" d="M136.5,15.2l2.5,1.5c0.1,0,0.2,0.1,0.3,0.1c0.2,0,0.4-0.1,0.5-0.3c0.1-0.3,0.1-0.6-0.2-0.7l-2.5-1.5
		c-0.3-0.1-0.6-0.1-0.7,0.2S136.2,15,136.5,15.2L136.5,15.2z"/>
	<path class="st0" d="M156.3,16.7c0.1,0,0.2,0,0.3-0.1l2.5-1.5c0.3-0.1,0.3-0.5,0.2-0.7s-0.5-0.3-0.7-0.2l-2.5,1.5
		c-0.3,0.1-0.3,0.5-0.2,0.7C155.9,16.6,156.1,16.7,156.3,16.7L156.3,16.7z"/>
	<path class="st0" d="M152.4,13c0.1,0,0.2,0.1,0.3,0.1c0.2,0,0.4-0.1,0.5-0.3l1.2-2.1c0.1-0.3,0.1-0.6-0.2-0.7
		c-0.3-0.1-0.6-0.1-0.7,0.2l-1.2,2.1C152.1,12.6,152.2,12.9,152.4,13L152.4,13z"/>
	<path class="st0" d="M160,20.6h-2.4c-0.3,0-0.5,0.2-0.5,0.5c0,0.3,0.2,0.5,0.5,0.5h2.4c0.3,0,0.5-0.2,0.5-0.5
		C160.5,20.8,160.3,20.6,160,20.6L160,20.6z"/>
	<path class="st0" d="M142.5,21.6c0.3,0,0.5-0.2,0.5-0.5v0c0-0.3-0.2-0.5-0.5-0.5s-0.5,0.2-0.5,0.5v0
		C141.9,21.4,142.2,21.6,142.5,21.6L142.5,21.6z"/>
	<path class="st0" d="M142.6,20c0.1,0,0.1,0,0.2,0c0.2,0,0.4-0.1,0.5-0.4c0.6-2,2.5-3.3,4.6-3.3c0.3,0,0.5-0.2,0.5-0.5
		c0-0.3-0.2-0.5-0.5-0.5c-2.6,0-4.8,1.6-5.6,4.1C142.1,19.6,142.3,19.9,142.6,20L142.6,20z"/>
	<path class="st0" d="M153.7,30.1H151c-0.3,0-0.5,0.2-0.5,0.5c0,0.3,0.2,0.5,0.5,0.5h2.7c0.3,0,0.5-0.2,0.5-0.5
		C154.2,30.4,154,30.1,153.7,30.1L153.7,30.1z"/>
	<path class="st0" d="M155.2,30.1L155.2,30.1c-0.3,0-0.5,0.2-0.5,0.5c0,0.3,0.2,0.5,0.5,0.5h0c0.3,0,0.5-0.2,0.5-0.5
		C155.8,30.4,155.5,30.1,155.2,30.1L155.2,30.1z"/>
</g>
<g>
	<line class="st1" x1="338.7" y1="22.6" x2="338.7" y2="13.4"/>
	<polyline class="st1" points="339.2,30.7 325.5,30.7 338.7,4.3 346.8,20.6 	"/>
	<path class="st1" d="M339.2,26.4c0,0.3-0.3,0.5-0.5,0.5l0,0c-0.3,0-0.5-0.3-0.5-0.5l0,0c0-0.3,0.3-0.5,0.5-0.5l0,0
		C338.9,25.9,339.2,26.2,339.2,26.4L339.2,26.4z"/>
</g>
<g>
	<polygon class="st2" points="344.2,36.9 339.5,38.2 340.9,33.5 350.8,23.6 354.1,26.9 	"/>
	<line class="st2" x1="348.2" y1="26.2" x2="351.5" y2="29.5"/>
	<line class="st2" x1="340.9" y1="33.5" x2="344.2" y2="36.9"/>
</g>
</svg>
